<?xml version="1.0" standalone="no"?>
<!DOCTYPE svg PUBLIC "-//W3C//DTD SVG 1.1//EN" "http://www.w3.org/Graphics/SVG/1.1/DTD/svg11.dtd" >
<svg xmlns="http://www.w3.org/2000/svg">
<metadata>Generated by IcoMoon</metadata>
<defs>
<font id="ee-icons" horiz-adv-x="1024">
<font-face units-per-em="1024" ascent="960" descent="-64" />
<missing-glyph horiz-adv-x="1024" />
<glyph unicode="&#x20;" horiz-adv-x="512" d="" />
<glyph unicode="&#xe000;" glyph-name="ee-icon-youtube" d="M598.276 526.308c7 0 14.224 2.142 21.652 6.424 7.41 4.282 14.578 10.444 21.43 18.6v-22.118h37.292l0.002 200.534h-37.292v-152.222c-3.5-4.356-7.316-8.006-11.468-10.78-4.208-2.83-7.67-4.282-10.408-4.282-3.538 0-6.088 1.154-7.652 3.24-1.564 2.142-2.308 5.566-2.308 10.296v153.748h-37.292v-167.62c0-11.878 2.122-20.89 6.572-26.848 4.336-5.974 10.852-8.972 19.472-8.972zM432.352 579.966c0-17.054 4.896-30.646 14.708-40.68 9.756-10.092 22.808-15.156 39.098-15.156 16.98 0 30.274 4.916 39.954 14.672 9.626 9.794 14.504 23.236 14.504 40.382v103.572c0 15.266-4.972 27.796-14.838 37.442-9.812 9.738-22.49 14.634-37.888 14.634-16.962 0-30.44-4.636-40.476-13.87-10.054-9.142-15.062-21.522-15.062-37.050v-103.946zM470.742 685.42c0 4.376 1.434 7.856 4.226 10.612 2.83 2.644 6.572 4.022 11.152 4.022 4.916 0 8.9-1.378 11.878-4.022 3.090-2.736 4.598-6.218 4.598-10.612v-109.232c0-5.418-1.508-9.588-4.432-12.678-2.978-3.034-7.020-4.636-12.028-4.636-4.99 0-8.75 1.49-11.394 4.486-2.7 3.034-3.984 7.316-3.984 12.828l0.002 109.232zM343.376 529.212h42.020v112.826l48.836 159.036h-42.636l-25.99-108.656h-2.644l-27.238 108.656h-42.282l49.916-164.1-0.002-107.762zM813.856 405.662c0 48.5-39.712 87.728-88.734 87.728-69.93 2.942-141.442 4.282-214.406 4.134-72.984 0.148-144.496-1.172-214.444-4.134-48.966 0-88.716-39.228-88.716-87.728-2.942-38.334-4.208-76.67-4.134-114.986-0.074-38.39 1.192-76.762 4.134-115.116 0-48.444 39.75-87.784 88.716-87.784 69.948-2.848 141.46-4.17 214.444-4.002 72.964-0.168 144.478 1.154 214.406 4.002 49.022 0 88.734 39.34 88.734 87.784 2.942 38.354 4.264 76.726 4.096 115.116 0.15 38.298-1.154 76.652-4.096 114.986zM336.506 158.618h-41.966v232.336h-43.474v42.412h128.894v-42.412h-43.454v-232.336zM485.898 158.618h-37.31v22.118c-6.908-8.154-14.038-14.374-21.466-18.58-7.41-4.3-14.69-6.48-21.634-6.48-8.638 0-15.118 2.96-19.494 8.992-4.376 5.94-6.572 14.914-6.572 26.792v170.524h37.292v-153.656c0-4.86 0.764-8.248 2.328-10.37 1.546-2.142 4.096-3.24 7.614-3.24 2.718 0 6.218 1.452 10.388 4.264 4.19 2.774 8.006 6.368 11.524 10.78v152.204h37.31v-203.348zM629.332 200.154c0-14.262-2.904-25.172-8.732-32.73-5.808-7.578-14.28-11.32-25.302-11.32-7.316 0-13.778 1.434-19.512 4.356-5.716 2.924-11.060 7.448-15.9 13.572v-15.416h-37.684v274.75h37.684v-87.58c4.99 6.182 10.334 10.798 15.994 13.982 5.622 3.166 11.338 4.84 17.128 4.84 11.804 0 20.816-4.338 27.034-12.866 6.238-8.62 9.272-21.038 9.272-37.46v-114.128zM767.162 254.148h-71.29v-34.928c0-10.538 1.172-17.836 3.65-21.932 2.476-4.058 6.666-6.126 12.678-6.126 6.106 0 10.464 1.75 12.922 5.194 2.438 3.426 3.63 11.078 3.63 22.864v13.946h38.39v-17.966c0-20.574-4.674-36.044-14.038-46.416-9.328-10.408-23.272-15.64-41.872-15.64-16.664 0-29.826 5.51-39.358 16.57-9.606 11.040-14.41 26.196-14.41 45.484v92.942c0 17.39 5.306 31.52 15.844 42.506 10.5 10.948 24.13 16.402 40.812 16.402 17.036 0 30.086-5.046 39.284-15.174 9.198-10.166 13.74-24.78 13.74-43.734v-53.992zM575.432 329.83c-2.7 0-5.288-0.708-7.894-1.992-2.588-1.322-5.138-3.314-7.652-6.106v-122.080c2.998-3.24 5.94-5.642 8.844-7.038 2.792-1.47 5.808-2.178 8.992-2.178 4.506 0 7.876 1.452 10.054 4.264 2.104 2.812 3.22 7.41 3.22 13.796v100.65c0 6.758-1.34 11.934-3.984 15.416-2.68 3.5-6.516 5.268-11.58 5.268zM712.518 329.068c-5.94 0-10.202-1.806-12.754-5.418-2.644-3.594-3.892-9.7-3.892-18.116v-17.408h32.898v17.408c0 8.396-1.266 14.504-3.836 18.116-2.568 3.63-6.738 5.418-12.416 5.418z" />
<glyph unicode="&#xe001;" glyph-name="ee-icon-welcome" d="M513.452 626.4c-11.73 0-21.28-9.682-21.28-21.56v-51.162l0.038-12.008-84.358 0.298 0.186 11.71v51.162c0 12.084-9.346 21.56-21.3 21.56-11.748 0-21.3-9.682-21.3-21.56v-167.824c0-11.878 9.552-21.542 21.3-21.542 12.14 0 21.3 9.272 21.3 21.542v51.182l0.094 11.6h84.080l-0.038-11.6v-51.182c0-11.468 9.96-21.542 21.28-21.542 12.14 0 21.3 9.272 21.3 21.542v167.824c-0.002 12.288-9.162 21.56-21.302 21.56zM622.592 626.4c-11.73 0-21.3-9.682-21.3-21.56v-167.824c0-11.878 9.57-21.542 21.3-21.542 12.158 0 21.318 9.272 21.318 21.542v167.824c0 12.082-9.346 21.56-21.318 21.56zM838.916 631.11c-18.6 33.866-45.038 64.14-78.588 89.982-32.842 25.284-71.028 45.15-113.534 59.038-43.268 14.094-89.404 21.244-137.104 21.244s-93.836-7.15-137.068-21.244c-42.542-13.89-80.728-33.754-113.552-59.038-33.532-25.804-59.988-56.078-78.606-89.982-19.642-35.858-29.622-74.044-29.622-113.516 0-26.996 2.494-50.734 7.652-72.536 5.678-23.942 14.578-45.726 26.438-64.698 12.492-19.996 28.746-38.056 48.314-53.694 14.076-11.264 29.844-21.318 48.146-30.682l6.312-8.602 29.622-176.574c1.918-11.394 9.756-21.002 20.722-25.154 3.574-1.434 7.428-2.16 11.45-2.16 7.484 0 14.54 2.514 20.424 7.28l178.79 142.802 6.256 2.55c39.172 3.872 76.948 12.734 112.286 26.326 39.042 15.174 73.876 35.43 103.536 60.174 30.348 25.34 54.29 54.718 71.158 87.244 17.688 34.258 26.68 70.508 26.68 107.762-0.016 39.508-10.014 77.694-29.712 113.478zM783.938 439.976c-12.698-24.688-31.242-47.328-55.054-67.23-24.24-20.238-52.894-36.808-85.178-49.264-33.606-12.996-69.614-20.852-106.942-23.328-6.59-0.484-13.088-2.998-18.228-7.074l-145.296-116.792-4.078 20.070-20.852 124.63c-1.824 11.022-8.974 20.164-19.214 24.558-21.746 9.588-40.308 20.424-55.11 32.154-14 11.078-25.022 23.272-33.624 37.2-8.378 13.442-14.374 28.188-18.32 45.074-3.966 16.83-5.902 35.692-5.902 57.624 0 28.412 7.262 56.022 21.598 82.050 14.206 25.88 34.778 49.32 61.142 69.726 26.996 20.778 58.61 37.144 93.91 48.612 36.864 12.028 76.222 18.134 116.94 18.134 40.644 0 79.946-6.106 116.848-18.116 35.318-11.488 66.932-27.852 93.966-48.63 26.382-20.424 46.956-43.864 61.198-69.706 14.298-26.028 21.522-53.638 21.522-82.050 0.018-26.796-6.498-52.936-19.326-77.642z" />
<glyph unicode="&#xe002;" glyph-name="ee-icon-warning" d="M474.018 525.172l17.892-199.234c0.782-9.122 8.602-16.254 17.798-16.254 9.364 0 17.054 6.982 17.892 16.272l17.892 200.798c0 20.090-15.918 36.418-35.542 36.418-19.864 0-36.006-16.328-35.932-38zM509.692 264.314c-23.534 0-42.672-19.14-42.672-42.692 0-23.534 19.14-42.654 42.672-42.654 23.534 0 42.692 19.12 42.692 42.654 0.018 23.532-19.14 42.692-42.692 42.692zM867.422 130.97l-324.554 657.966c-5.456 11.096-16.98 18.284-29.306 18.338-12.866-0.056-23.924-6.814-29.602-18.096l-331.85-657.966c-5.102-10.128-4.58-22.416 1.36-32.080 6.050-9.794 16.532-15.658 28.038-15.658h656.402c11.45 0 21.894 5.808 27.964 15.546 6.052 9.738 6.63 21.672 1.548 31.95zM784.7 149.718h-549.626l6.050 11.786 272.458 539.034 6.888-15.024 264.23-535.796z" />
<glyph unicode="&#xe003;" glyph-name="ee-icon-wallet" d="M262.424 83.494c-5.734 0-11.506 1.602-16.72 4.654-7.316 4.376-12.698 11.636-14.672 19.846l-79.052 317.106c-2.122 8.34-0.82 17.036 3.63 24.502 4.394 7.336 11.636 12.716 19.884 14.746l188.826 47.066-0.876 7.224c-4.432 39.936 0.578 79.294 14.894 116.996 23.888 63.228 70.992 113.366 132.636 141.182 33.010 14.914 67.994 22.472 104.002 22.472 99.402 0 190.074-58.554 231.014-149.15 27.796-61.738 29.9-130.532 5.92-193.722-23.924-63.246-71.046-113.384-132.73-141.144-4.45-2.030-9.346-3.668-14.242-5.324l-8.528-3.91 20.052-76.912c2.104-8.36 0.8-17.036-3.63-24.428-4.45-7.41-11.544-12.678-19.958-14.764l-422.632-105.398c-2.792-0.726-5.362-1.042-7.818-1.042zM230.79 411.36l-7.968-2.048 61.104-245.984 2.010-8.266 359.852 89.888-14.894 59.672-1.974 8.694-121.204-29.9c-1.954-0.466-4.19-0.708-6.628-0.708-12.624 0-23.738 8.452-27.034 20.554l-19.326 71.010c-1.974 7.316-0.912 15.192 2.924 21.672s10.258 11.208 17.576 12.996l121.968 29.156-1.732 8.564-12.53 52.522-8.658-2.29-343.486-85.532zM692.746 374.384c45.634 20.518 80.748 57.81 98.62 104.95 17.836 47.048 16.254 98.248-4.432 144.16-30.46 67.454-97.95 111.020-171.938 111.020-26.772 0-52.782-5.642-77.358-16.756-45.8-20.648-80.878-57.958-98.75-105.044-9.068-24.018-13.032-49.356-11.822-75.366l1.228-10.146 170.002 42.468c2.55 0.634 5.158 0.968 7.764 0.968 14.914 0 27.796-10.092 31.39-24.538l44.18-176.928z" />
<glyph unicode="&#xe004;" glyph-name="ee-icon-voip" d="M560.91 316.052c-11.822 18.246-31.93 29.156-53.788 29.156-8.77 0-17.408-1.824-25.618-5.38l-3.928-1.712-6.238 1.806c-26.828 39.546-72.908 120.422-79.854 217.61l3.65 5.232c28.206 8.174 46.788 33.456 46.192 62.892l-2.272 109.698c-0.428 20.462-10.686 39.62-27.388 51.294-10.65 7.428-23.794 11.524-36.958 11.524-7.074 0-14.020-1.154-20.61-3.408l-105.696-36.268c-23.030-7.894-39.396-27.778-42.728-51.908-1.824-13.032-41.612-322.188 214.37-601.944 12.12-13.256 29.38-20.852 47.346-20.852 7.186 0 14.43 1.248 21.504 3.742l102.68 36.51c18.618 6.61 32.972 21.188 39.322 39.918 6.312 18.712 3.742 38.986-7.074 55.576l-62.912 96.514zM562.548 182.858l-91.676-32.62-5.456 1.378c-218.706 241.348-198.654 512.112-195.658 542.182l3.408 4.3 94.226 32.34 6.722-4.692 1.974-96.572-3.872-5.026-45.708-11.226-0.038-0.688c-14.41-201.392 125.152-353.69 126.586-355.234l0.446-0.466 49.356 21.578 6.292-1.9 55.93-85.812-2.532-7.542zM818.064 476.672c-0.764 12.828-2.234 25.936-4.376 39.006-2.086 12.922-4.934 26.046-8.416 39.024-3.518 13.144-7.746 26.102-12.456 38.522-4.71 12.344-10.016 24.502-16.29 37.18-6.032 11.934-12.642 23.59-19.68 34.648-6.572 10.464-14.188 21.244-22.622 32.060-8.006 10.184-16.552 20.052-25.452 29.342-8.472 8.9-17.892 17.818-28.002 26.494-9.272 7.988-19.418 15.9-30.068 23.478-10.37 7.262-21.262 14.15-32.358 20.442-4.468 2.532-9.514 3.872-14.634 3.872-10.686 0-20.628-5.79-25.898-15.062-8.044-14.28-3.016-32.47 11.208-40.532 9.44-5.324 18.656-11.17 27.35-17.334 8.694-6.088 17.314-12.81 25.656-19.958 8.248-7.038 16.236-14.616 23.776-22.49 7.876-8.248 15.118-16.644 21.578-24.93 6.74-8.582 13.238-17.744 19.27-27.22 6.274-9.886 11.878-19.792 16.664-29.472 5.194-10.352 9.868-21.020 13.89-31.65 4.134-10.762 7.708-21.802 10.65-32.842 2.942-11.060 5.362-22.212 7.168-33.158 1.75-10.874 2.978-22.062 3.668-33.158 0.726-10.724 0.856-21.84 0.39-32.936-0.28-10.52-1.21-21.486-2.792-32.564-1.34-10.5-3.314-21.28-5.828-32.004-2.532-10.966-5.51-21.43-8.862-31.092-5.288-15.528 3.016-32.488 18.506-37.776 3.146-1.062 6.348-1.582 9.626-1.582 3.63 0 7.168 0.634 10.538 1.918 8.266 3.202 14.69 9.83 17.556 18.172 4.040 12.008 7.578 24.428 10.556 36.882 2.96 12.66 5.268 25.264 6.852 37.534 1.75 12.81 2.868 25.73 3.332 38.39 0.468 13.158 0.3 26.21-0.5 38.796zM712.536 526.196c-2.626 10.724-6.050 21.69-10.202 32.6-4.058 10.63-8.676 20.908-14.112 31.334-5.548 10.24-11.45 19.81-17.52 28.468-6.404 9.142-13.442 18.004-20.964 26.382-7.168 8.154-15.080 16.068-23.608 23.57-7.968 7.206-16.774 14.262-26.214 20.946-5.064 3.612-11.004 5.53-17.204 5.53-9.588 0-18.656-4.654-24.24-12.474-4.618-6.516-6.46-14.41-5.102-22.268 1.284-7.802 5.586-14.634 12.064-19.214 7.392-5.25 14.522-10.928 21.15-16.868 6.404-5.678 12.754-11.99 18.804-18.73 6.424-7.206 11.842-14.020 16.478-20.834 5.12-7.242 9.756-14.782 13.89-22.454 4.040-7.708 7.746-15.938 11.078-24.52 3.276-8.638 5.92-17.204 7.988-25.526 2.178-9.384 3.724-17.986 4.654-26.27 0.986-8.098 1.47-16.7 1.47-26.344-0.038-8.714-0.578-17.724-1.582-26.754-0.93-8.136-2.42-16.812-4.562-26.586-1.788-7.746-0.39-15.676 3.816-22.38 4.244-6.722 10.892-11.394 18.692-13.164 2.104-0.484 4.32-0.744 6.534-0.744 3.612 0 7.13 0.634 10.464 1.918 9.402 3.594 16.29 11.562 18.45 21.318 2.606 11.544 4.486 22.304 5.754 32.88 1.266 11.45 1.918 22.38 1.918 33.42 0.038 11.246-0.596 22.454-1.88 33.326-1.304 10.798-3.332 22.062-6.014 33.438zM546.090 531.112c3.426-3.816 6.59-8.024 9.122-12.194 2.55-4.17 4.784-8.75 6.59-13.554 1.844-4.822 3.22-9.626 4.040-14.262 0.95-5.138 1.396-10.278 1.36-15.64 0.056-4.916-0.372-10.24-1.284-16.29-2.514-16.142 8.602-31.428 24.724-34.034 1.508-0.242 2.978-0.336 4.468-0.336 3.686 0 7.28 0.652 10.724 1.974 9.98 3.724 17.184 12.586 18.822 23.162 1.378 8.936 2.066 17.576 1.992 25.748 0.038 8.452-0.708 16.906-2.252 25.824-1.638 8.75-3.966 17.166-6.964 24.966-3.072 7.95-6.832 15.658-11.524 23.496-4.506 7.224-9.626 14.076-15.174 20.386-5.288 6.088-11.562 12.12-18.618 17.986-5.362 4.432-12.084 6.87-19.010 6.87-8.918 0-17.24-3.91-22.844-10.762-10.464-12.604-8.732-31.408 3.872-41.872 4.508-3.686 8.438-7.466 11.956-11.468z" />
<glyph unicode="&#xe005;" glyph-name="ee-icon-twitter" d="M867.85 598.342c-26.438-11.748-54.794-19.624-84.62-23.198 30.404 18.228 53.77 47.104 64.772 81.492-28.468-16.868-59.97-29.1-93.556-35.766-26.866 28.672-65.164 46.546-107.502 46.546-81.362 0-147.344-65.946-147.344-147.344 0-11.524 1.284-22.77 3.798-33.568-122.414 6.126-230.996 64.81-303.682 153.954-12.66-21.784-19.94-47.086-19.94-74.082 0-51.088 26.010-96.218 65.536-122.62-24.166 0.726-46.844 7.372-66.708 18.432-0.056-0.652-0.056-1.212-0.056-1.862 0-71.364 50.81-130.904 118.206-144.44-12.344-3.352-25.376-5.138-38.818-5.138-9.496 0-18.692 0.912-27.722 2.626 18.748-58.572 73.15-101.116 137.644-102.344-50.436-39.452-113.924-63.004-182.96-63.004-11.898 0-23.646 0.652-35.17 2.030 65.2-41.816 142.652-66.188 225.838-66.188 270.988 0 419.17 224.442 419.17 419.188 0 6.33-0.13 12.716-0.39 19.028 28.764 20.758 53.806 46.73 73.504 76.258z" />
<glyph unicode="&#xe006;" glyph-name="ee-icon-tv" d="M835.882 722.208l-292.454 0.112 24.278 24.39 73.56 73.56c12.828 12.828 12.846 33.736 0.018 46.602-6.238 6.218-14.522 9.662-23.328 9.662s-17.072-3.426-23.292-9.662l-85.048-86.090-10.036 11.302-74.77 74.714c-6.218 6.218-14.504 9.662-23.292 9.662s-17.072-3.426-23.292-9.662c-12.846-12.846-12.846-33.754 0-46.602l73.524-73.504 20.704-24.966-289.102 0.482c-18.172 0-32.954-14.782-32.954-32.954v-452.702c0-18.172 14.782-32.954 32.954-32.954h652.512c18.172 0 32.954 14.782 32.954 32.954v452.702c0 18.172-14.784 32.954-32.936 32.954zM802.91 269.676l-14.354-0.168-572.12 0.28-0.13 372.158-0.168 14.634 587.050-0.298-0.298-14.354v-372.252zM693.956 149.514h-368.472c-18.172 0-32.954-14.782-32.954-32.972 0-18.172 14.782-32.954 32.954-32.954h368.492c18.172 0 32.954 14.782 32.954 32.954-0.020 18.188-14.804 32.972-32.974 32.972z" />
<glyph unicode="&#xe007;" glyph-name="ee-icon-trash" d="M390.442 83.438c-55.742 0-101.096 45.392-101.096 101.134v351.512c0 18.228 14.838 33.066 33.066 33.066h376.088c18.228 0 33.048-14.838 33.048-33.066v-351.512c0-55.742-45.354-101.134-101.096-101.134h-240.010zM355.476 184.572c0-19.27 15.676-34.946 34.946-34.946h240.026c19.288 0 34.984 15.676 34.984 34.946v318.444h-309.956v-318.444zM278.23 603.554c-18.134 0-32.862 14.746-32.862 32.88s14.746 32.862 32.862 32.862h457.486c18.134 0 32.88-14.746 32.88-32.862s-14.746-32.88-32.88-32.88h-457.486zM604.848 433.57c-10.576 10.556-27.108 11.246-36.808 1.602l-55.686-55.686-55.686 55.686c-9.682 9.682-26.158 9.068-36.734-1.508-10.594-10.556-11.246-27.090-1.564-36.79l55.686-55.706-55.686-55.724c-9.682-9.7-9.030-26.214 1.564-36.808 10.576-10.556 27.052-11.19 36.734-1.508l55.686 55.724 55.686-55.724c9.7-9.626 26.214-8.956 36.808 1.62 10.52 10.576 11.19 27.070 1.508 36.696l-55.706 55.724 55.706 55.706c9.682 9.626 9.030 26.104-1.508 36.696zM441.028 696.87h142.672c9.234 0 16.7 7.484 16.7 16.738 0 9.272-7.466 16.738-16.7 16.738h-142.672c-9.254 0-16.738-7.484-16.738-16.738s7.484-16.738 16.738-16.738z" />
<glyph unicode="&#xe008;" glyph-name="ee-icon-top" d="M511.106 83.716c-27.406 0-49.71 22.304-49.71 49.73v524.772l-177.246-177.226c-9.384-9.384-21.858-14.56-35.152-14.56s-25.768 5.176-35.152 14.578c-9.384 9.384-14.56 21.858-14.56 35.152s5.176 25.768 14.578 35.152l261.532 261.51c2.532 2.626 5.288 4.952 8.154 6.852 0.856 0.578 1.788 1.062 2.718 1.546l1.862 1.006c1.284 0.726 2.588 1.452 3.966 2.030 1.284 0.54 2.606 0.912 3.928 1.284l2.086 0.634c1.080 0.354 2.142 0.688 3.258 0.912 2.978 0.596 5.958 0.856 8.956 0.912l1.936-0.018c2.682-0.038 5.642-0.316 8.546-0.894 1.192-0.224 2.364-0.596 3.5-0.986l2.308-0.708c1.154-0.316 2.346-0.652 3.482-1.136 1.452-0.596 2.774-1.34 4.114-2.104l1.954-1.062c0.856-0.428 1.712-0.876 2.532-1.434 2.7-1.806 5.268-3.892 7.578-6.218l261.754-261.808c19.382-19.382 19.382-50.92 0-70.302-9.384-9.384-21.876-14.56-35.152-14.56s-25.768 5.176-35.152 14.56l-176.91 176.948v-524.866c0.002-27.39-22.302-49.696-49.708-49.696z" />
<glyph unicode="&#xe009;" glyph-name="ee-icon-tickinbox" d="M496.734 239.886c-1.172 0-2.364 0.038-3.556 0.168-11.468 1.024-22.026 6.74-29.026 15.732l-114.372 146.414c-6.796 8.694-9.794 19.53-8.472 30.496 1.34 10.948 6.888 20.74 15.584 27.536 7.354 5.754 16.16 8.788 25.452 8.788 12.828 0 24.706-5.808 32.582-15.9l87.114-111.522 306.474 274.99c7.578 6.832 17.37 10.576 27.554 10.576 11.73 0 22.956-5.008 30.794-13.722 7.372-8.21 11.116-18.822 10.5-29.864-0.578-11.040-5.456-21.168-13.666-28.542l-339.352-304.574c-7.578-6.834-17.39-10.576-27.61-10.576zM224.536 83.736c-4.896 0-9.83 0.466-14.69 1.414-4.748 0.93-9.588 2.458-14.354 4.486-4.226 1.732-8.602 4.134-12.79 7-3.276 2.16-7.038 5.268-10.444 8.62-3.258 3.276-6.33 6.964-9.048 10.948-2.718 4.002-4.972 8.174-6.888 12.716-1.918 4.486-3.37 9.16-4.338 13.926-1.006 4.896-1.508 9.904-1.508 14.894l-0.004 373.298c0 4.972 0.502 9.98 1.508 14.876 0.968 4.766 2.42 9.458 4.32 13.926s4.19 8.714 6.87 12.642c2.718 4.002 5.66 7.558 8.974 10.854 3.352 3.352 6.888 6.292 10.854 8.974s8.23 5.008 12.678 6.888c4.506 1.918 9.198 3.37 13.946 4.338 4.896 1.006 9.904 1.508 14.894 1.508h404.090c18.284 0 33.158-14.876 33.158-33.178 0-18.284-14.876-33.158-33.158-33.158h-411.778l0.038-388.692 419.486 0.074-0.168 100.966c0 18.264 14.914 33.14 33.234 33.14 18.284 0 33.158-14.876 33.158-33.158v-93.314c0-4.822-0.466-9.644-1.452-14.69-0.95-4.84-2.458-9.662-4.468-14.354-1.658-4.114-4.17-8.676-6.926-12.66-2.086-3.24-5.158-6.964-8.582-10.444-3.948-3.854-7.67-6.888-11.58-9.458-3.78-2.626-8.062-4.896-12.53-6.702-4.244-1.862-9.216-3.388-13.89-4.282-4.618-0.93-9.606-1.414-14.522-1.414l-404.090-0.004z" />
<glyph unicode="&#xe00a;" glyph-name="ee-icon-tick" d="M343.58 83.438c-1.564 0-3.072 0.074-4.636 0.186-12.866 1.136-25.116 7.67-33.364 17.966l-144.366 179.852c-16.756 20.87-13.368 51.46 7.522 68.198 8.694 6.982 19.158 10.686 30.274 10.668 14.858 0.018 28.71-6.59 37.982-18.208l112.788-140.456 437.062 380.072c8.862 7.708 20.182 11.952 31.8 11.972 14.094 0.018 27.5-6.070 36.734-16.682 17.556-20.2 15.434-50.902-4.73-68.44l-475.228-413.232c-8.826-7.67-20.164-11.896-31.838-11.896z" />
<glyph unicode="&#xe00b;" glyph-name="ee-icon-texts" d="M346.372 459.71h326.862c24.67 0 41.24 13.238 41.24 32.936s-16.57 32.916-41.24 32.916l-326.862 0.002c-9.738 0-24.65-14.746-24.65-32.916 0-18.192 14.914-32.938 24.65-32.938zM346.372 310.3h326.862c18.172 0 32.954 14.802 32.954 32.972 0 18.152-14.782 32.916-32.954 32.916l-326.862 0.002c-18.152 0-32.936-14.764-32.936-32.916 0.002-18.192 14.766-32.974 32.936-32.974zM821.528 701.43h-623.45c-18.152 0-32.936-14.764-32.936-32.936v-501.89c0-18.172 14.764-32.954 32.936-32.954h260.99l0.298-164.604c-0.038-12.884 7.448-24.67 19.102-30.012 4.376-1.972 9.142-3.034 13.796-3.034 7.876 0 15.508 2.83 21.466 8.006l220.384 189.664h87.412c18.19 0 32.972 14.782 32.972 32.954l0.002 501.872c0 18.152-14.782 32.934-32.972 32.934zM788.61 199.522h-66.84c-7.894-0.018-15.508-2.848-21.43-8.006l-174.88-150.528 0.39 125.486c0.038 8.862-3.37 17.166-9.57 23.384-6.218 6.218-14.522 9.662-23.348 9.662h-261.958v436.038h557.614l0.004-436.036z" />
<glyph unicode="&#xe00c;" glyph-name="ee-icon-talkmore" d="M838.916 631.11c-18.6 33.866-45.038 64.14-78.588 89.982-32.842 25.284-71.028 45.15-113.534 59.038-43.268 14.094-89.404 21.244-137.104 21.244s-93.836-7.15-137.068-21.244c-42.542-13.89-80.728-33.754-113.552-59.038-33.532-25.804-59.988-56.078-78.606-89.982-19.642-35.858-29.622-74.044-29.622-113.516 0-26.996 2.494-50.734 7.652-72.536 5.678-23.942 14.578-45.726 26.438-64.698 12.492-19.996 28.746-38.056 48.314-53.694 14.076-11.264 29.844-21.318 48.146-30.682l6.312-8.602 29.622-176.574c1.918-11.394 9.756-21.002 20.722-25.154 3.574-1.434 7.428-2.16 11.45-2.16 7.484 0 14.54 2.514 20.424 7.28l178.79 142.802 6.256 2.55c39.172 3.872 76.948 12.734 112.286 26.326 39.042 15.174 73.876 35.43 103.536 60.174 30.348 25.34 54.29 54.718 71.158 87.244 17.688 34.258 26.68 70.508 26.68 107.762-0.016 39.508-10.014 77.694-29.712 113.478zM783.938 439.976c-12.698-24.688-31.242-47.328-55.054-67.23-24.24-20.238-52.894-36.808-85.178-49.264-33.606-12.996-69.614-20.852-106.942-23.328-6.59-0.484-13.088-2.998-18.228-7.074l-145.296-116.792-4.078 20.070-20.852 124.63c-1.824 11.022-8.974 20.164-19.214 24.558-21.746 9.588-40.308 20.424-55.11 32.154-14 11.078-25.022 23.272-33.624 37.2-8.378 13.442-14.374 28.188-18.32 45.074-3.966 16.83-5.902 35.692-5.902 57.624 0 28.412 7.262 56.022 21.598 82.050 14.206 25.88 34.778 49.32 61.142 69.726 26.996 20.778 58.61 37.144 93.91 48.612 36.864 12.028 76.222 18.134 116.94 18.134 40.644 0 79.946-6.106 116.848-18.116 35.318-11.488 66.932-27.852 93.966-48.63 26.382-20.424 46.956-43.864 61.198-69.706 14.298-26.028 21.522-53.638 21.522-82.050 0.018-26.796-6.498-52.936-19.326-77.642zM595.67 544.2l-61.124-0.39-0.39 61.998c0 12.214-9.924 22.156-22.118 22.156-12.214 0-22.156-9.942-22.156-22.156v-50.53l0.074-10.874-61.626-0.186c-12.214 0-22.156-9.942-22.156-22.156s9.942-22.138 22.156-22.138l61.626 0.28-0.074-11.338v-50.474c0-12.214 9.942-22.156 22.156-22.156 12.194 0 22.118 9.942 22.118 22.156v50.474l-0.298 11.040 61.812 0.018c12.214 0 22.174 9.942 22.174 22.138 0.018 12.196-9.96 22.138-22.174 22.138z" />
<glyph unicode="&#xe00d;" glyph-name="ee-icon-tc" d="M445.328 262.228h-165.498c-18.246 0-33.028-14.838-33.028-33.048s14.782-33.028 33.028-33.028h165.498c18.246 0 33.010 14.82 33.010 33.028s-14.764 33.048-33.010 33.048zM445.328 370.548h-165.498c-18.246 0-33.028-14.782-33.028-32.992 0-18.246 14.782-33.048 33.028-33.048h165.498c18.246 0 33.010 14.802 33.010 33.048 0 18.21-14.764 32.992-33.010 32.992zM792.614 517.222h-211.688l-0.002 211.708h211.688v-39.638l72.276 69.688v6.070c0 19.922-16.18 36.12-36.156 36.12l-283.946-0.002c-19.94 0-36.1-16.198-36.1-36.12v-174.75c-4.99 1.006-10.11 1.564-15.378 1.564h-262.462c-44.106 0-80.002-35.914-80.002-80.020v-348.588c0-44.144 35.896-80.040 80.002-80.040h262.442c44.106 0 80.002 35.896 80.002 80.040l0.002 281.73h255.422c19.978 0 36.156 16.18 36.156 36.1v131.314l-72.276-70.154v-25.022zM507.27 163.254c0-7.746-6.274-14-13.964-14l-262.46-0.002c-7.708 0-13.964 6.256-13.964 14l0.002 348.59c0 7.726 6.256 13.982 13.964 13.982h262.442c7.708 0 13.964-6.274 13.964-13.982l-0.002-348.588zM445.328 478.924h-165.498c-18.246 0-33.028-14.782-33.028-33.010 0-18.264 14.782-32.992 33.028-32.992h165.498c18.246 0 33.010 14.726 33.010 32.992 0 18.228-14.764 33.010-33.010 33.010zM740.352 528.3c-1.042-0.038-2.086-0.018-3.128 0.038-10.128 0.54-19.568 5.288-25.99 12.958l-72.556 87.86c-6.238 7.428-9.178 16.868-8.34 26.568 0.856 9.662 5.436 18.45 12.884 24.688 6.292 5.268 13.946 8.21 22.118 8.472 11.302 0.39 21.932-4.356 29.118-12.996l47.55-57.978 158.366 152.278c6.46 6.218 14.97 9.85 23.924 10.146 10.314 0.354 20.35-3.724 27.5-11.17 6.74-7 10.352-16.236 10.128-25.954-0.168-9.718-4.152-18.786-11.17-25.526l-186.424-179.294c-6.478-6.198-14.988-9.774-23.98-10.090z" />
<glyph unicode="&#xe00e;" glyph-name="ee-icon-surfmore" d="M834.802 746.58h-650.388c-18.172 0-32.954-14.782-32.954-32.954v-454.526c0-18.172 14.782-32.936 32.954-32.936l200.462 0.428 0.018-11.654v-54.366l-0.316-11.358-59.932 0.168c-18.172 0-32.936-14.782-32.936-32.954 0-18.19 14.764-32.972 32.936-32.972h369.924c18.19 0 32.954 14.782 32.954 32.972 0 18.172-14.764 32.954-32.954 32.954l-58.648-0.168-0.298 11.358 0.298 66.020 10.948-0.428h187.932c18.19 0 32.954 14.764 32.954 32.936v454.526c-0.018 18.17-14.782 32.954-32.954 32.954zM569.884 149.532l-119.268-0.298 0.186 11.358v54.366l0.112 11.358h118.988l-0.148-11.358v-54.366l0.13-11.060zM801.736 292.072l-585.17 0.298v388.358l585.17-0.28v-388.376zM622.76 504.45l-85.736-0.018 0.242 11.302v74.286c0 15.212-12.4 27.61-27.648 27.61-15.212 0-27.61-12.4-27.61-27.61v-74.286l0.336-11.302-85.868 0.018c-15.23 0-27.63-12.4-27.63-27.61 0-15.23 12.4-27.63 27.63-27.63l85.868 0.26-0.336-11.544v-74.212c0-15.212 12.4-27.61 27.61-27.61 15.248 0 27.648 12.4 27.648 27.61v74.212l-0.242 11.544 85.736-0.26c15.212 0 27.61 12.4 27.61 27.63 0.018 15.23-12.38 27.61-27.61 27.61z" />
<glyph unicode="&#xe00f;" glyph-name="ee-icon-support" d="M492.302-62.92c-23.18 0-44.944 8.992-61.254 25.376-8.098 8.118-14.392 17.538-18.712 28.038l-1.658 3.928-4.73 4.078-176.314 165.422c-6.908 6.46-10.836 15.62-10.836 25.098l0.002 37.238-23.608-8.508c-3.706-1.322-7.596-1.954-11.618-1.954-18.954 0-34.37 15.378-34.37 34.332l0.002 194.39c0 197.018 160.246 357.302 357.228 357.302 197.018 0 357.32-160.284 357.32-357.302v-211.038c0-18.954-15.416-34.388-34.388-34.388-12.12 0-23.458 6.498-29.64 16.942l-8.788 14.95-15.1-8.528c-5.12-2.924-10.928-4.432-16.868-4.432-18.972 0-34.388 15.416-34.388 34.426v128.708c0 18.99 15.416 34.406 34.388 34.406 4.19 0 8.248-0.726 12.12-2.16l23.85-8.992v40.14c0 159.11-129.434 288.564-288.544 288.564-159.074 0-288.488-129.452-288.488-288.564v-40.030l23.608 8.508c3.686 1.322 7.596 1.974 11.636 1.974 18.954 0 34.37-15.434 34.37-34.388v-176.706l134.832-126.548 12.046 10.874c15.826 14.298 36.38 22.118 57.866 22.118 23.162 0 44.888-8.974 61.272-25.21 33.382-33.512 33.754-87.86 0.986-121.708l-0.986-0.986c-16.328-16.378-38.094-25.37-61.236-25.37z" />
<glyph unicode="&#xe010;" glyph-name="ee-icon-stop" d="M255.962 83.232c-32.656 0-58.256 29.138-58.256 66.318v491.278c0 36.584 26.14 66.336 58.256 66.336h507.458c32.656 0 58.238-29.138 58.238-66.336v-491.26c0-37.18-25.582-66.318-58.238-66.318l-507.458 0.002zM755.916 148.954v492.488h-492.506v-492.488h492.506z" />
<glyph unicode="&#xe011;" glyph-name="ee-icon-social" d="M668.486 83.288h-315.094c-8.956 0-17.538 3.724-23.756 10.202-6.2 6.516-9.496 15.212-9.086 24.186 0 0 0.522 12.772 3.184 31.968 3.462 25.004 8.658 48.444 15.62 69.726 10.202 31.334 23.85 56.786 40.588 75.59 8.992 10.072 18.972 18.358 29.752 24.724-5.754 7.578-11.096 16.85-15.36 26.754-6.628 15.806-9.96 32.358-9.96 49.468 0 17.054 3.37 33.68 9.96 49.226 6.386 15.024 15.528 28.634 27.202 40.234 11.506 11.544 25.078 20.722 40.252 27.070 31.148 13.144 67.1 13.144 98.322 0 15.044-6.312 28.672-15.528 40.402-27.182 11.488-11.524 20.554-25.060 26.96-40.122 6.666-15.64 9.998-32.172 9.998-49.208s-3.332-33.624-9.96-49.338c-4.096-9.7-9.31-18.636-15.434-26.81 10.818-6.348 20.816-14.708 29.826-24.856 16.72-18.73 30.404-44.218 40.644-75.516 6.814-21.114 12.084-44.534 15.584-69.576 2.662-19.4 3.202-32.154 3.202-32.154 0.372-8.956-2.942-17.762-9.104-24.222-6.222-6.44-14.75-10.164-23.742-10.164zM517.996 149.066h113.72c-2.886 18.004-6.814 34.798-11.73 49.952-7.28 22.268-16.72 40.308-27.182 52.15-10.948 12.362-22.788 18.078-37.292 18.078-12.586 0-24.13 7.186-29.584 18.526-5.51 11.394-4.078 24.856 3.742 34.704l21.652 27.444c8.080 8.396 12.568 15.1 15.658 22.342 3.072 7.354 4.71 15.304 4.71 23.646 0 8.174-1.638 16.142-4.73 23.552-3.072 7.242-7.448 13.758-12.958 19.196-5.772 5.734-12.214 10.128-19.308 13.182-15.192 6.33-32.452 6.33-47.458 0-7.168-3.054-13.684-7.448-19.252-13.014-5.66-5.698-10.016-12.12-13.070-19.344-3.184-7.41-4.804-15.378-4.804-23.57 0-8.322 1.62-16.29 4.804-23.756 3.034-7.13 7.484-13.814 12.922-19.158l24.316-30.496c7.802-9.85 9.272-23.31 3.78-34.704-5.53-11.338-17.018-18.526-29.584-18.526-14.504 0-26.326-5.716-37.218-18.004-10.742-12.008-19.884-29.548-27.276-52.242-5.864-18.004-9.514-36.026-11.71-49.934l127.852-0.004zM943.98 151.078h-195.008c-18.152 0-32.916 14.69-32.916 32.898 0 18.172 14.764 32.898 32.916 32.898h158.292c-2.234 13.89-5.846 31.912-11.766 49.86-7.372 22.658-16.496 40.272-27.202 52.242-10.874 12.418-22.752 18.078-37.236 18.078-12.604 0-24.018 7.186-29.584 18.526-5.492 11.246-4.022 24.8 3.742 34.704l21.634 27.462c8.154 8.508 12.53 15.044 15.528 22.138 3.258 7.634 4.84 15.528 4.84 23.72s-1.638 16.29-4.71 23.59c-3.128 7.354-7.504 13.814-13.070 19.474-5.66 5.586-12.102 9.98-19.288 12.94-15.080 6.386-32.358 6.424-47.29 0.038-7.242-2.998-13.964-7.522-19.474-13.032-5.586-5.604-9.96-12.102-12.996-19.362-3.11-7.336-4.71-15.454-4.71-23.646s1.564-16.104 4.71-23.552c3.034-7.206 7.41-13.796 13.182-19.55l24.074-30.198c7.876-9.83 9.328-23.422 3.836-34.704-5.51-11.358-16.962-18.544-29.584-18.544-14.522 0-26.344-5.66-37.2-18.004-12.008-13.61-32.824-14.932-46.396-2.774-13.592 12.028-14.894 32.824-2.774 46.378 8.956 10.222 18.934 18.506 29.734 24.836-5.828 7.708-11.226 17.018-15.398 26.884-6.61 15.676-9.942 32.19-9.942 49.226 0 17.11 3.332 33.662 9.942 49.264 6.274 14.95 15.36 28.412 26.94 40.14 11.842 11.766 25.358 20.89 40.42 27.238 31.11 13.108 67.342 13.164 98.564-0.074 14.858-6.182 28.336-15.304 40.066-26.996 11.748-11.766 20.908-25.284 27.22-40.346 6.59-15.416 9.96-32.004 9.96-49.226 0-17.092-3.388-33.718-10.054-49.338-3.984-9.514-9.104-18.394-15.378-26.736 10.836-6.348 20.89-14.672 29.9-24.892 16.682-18.748 30.348-44.18 40.532-75.534 6.888-21.132 12.176-44.516 15.62-69.558 2.682-19.326 3.184-32.19 3.184-32.19 0.372-8.9-2.924-17.65-9.16-24.13-6.182-6.462-14.708-10.148-23.7-10.148zM270.54 150.78h-195.024c-8.956 0-17.538 3.686-23.738 10.166s-9.496 15.248-9.104 24.26c0 0 0.558 12.772 3.202 32.042 3.5 25.078 8.75 48.444 15.602 69.558 10.222 31.39 23.888 56.842 40.644 75.628 8.956 10.11 18.934 18.432 29.77 24.762-5.846 7.67-11.226 16.98-15.398 26.884-6.572 15.528-9.942 32.134-9.942 49.19 0 17.166 3.37 33.792 9.96 49.356 6.292 14.894 15.416 28.412 26.996 40.14 11.898 11.766 25.452 20.908 40.382 27.146 30.962 13.164 67.248 13.2 98.508-0.074 14.858-6.2 28.392-15.36 40.084-26.922 11.822-12.008 20.908-25.488 27.182-40.402 6.59-15.454 9.942-32.080 9.942-49.246 0-17.072-3.352-33.662-9.96-49.264-4.002-9.552-9.198-18.414-15.49-26.81 10.854-6.33 20.852-14.652 29.844-24.874 12.064-13.572 10.818-34.35-2.812-46.378-13.554-12.14-34.314-10.762-46.396 2.774-10.892 12.344-22.714 18.004-37.162 18.004-12.642 0-24.092 7.186-29.622 18.544-5.492 11.282-4.022 24.874 3.798 34.704l21.708 27.48c8.154 8.472 12.53 15.080 15.546 22.248 3.166 7.466 4.804 15.378 4.804 23.57s-1.676 16.29-4.748 23.626c-3.072 7.28-7.466 13.778-13.164 19.568-5.492 5.436-12.028 9.85-19.158 12.81-15.118 6.424-32.47 6.386-47.29 0.038-7.336-2.998-13.814-7.392-19.53-13.088-5.436-5.548-9.85-12.028-12.902-19.252-3.128-7.392-4.804-15.508-4.804-23.7s1.602-16.104 4.766-23.534c3.090-7.28 7.484-13.814 13.088-19.474l24.186-30.31c7.838-9.868 9.254-23.404 3.76-34.704-5.492-11.338-16.998-18.526-29.566-18.526-14.522 0-26.344-5.66-37.236-18.004-10.724-12.028-19.866-29.658-27.258-52.318-4.804-14.876-8.862-31.948-11.73-49.86h158.274c18.19 0 32.862-14.726 32.862-32.898-0.012-18.17-14.684-32.86-32.874-32.86z" />
<glyph unicode="&#xe012;" glyph-name="ee-icon-speed" d="M509.672 91.052c-51.386 0-93.184 41.78-93.184 93.11 0 51.294 41.798 93.036 93.184 93.036 9.718 0 19.53-1.62 29.174-4.784l13.48-4.45 138.65 133.79c6.144 5.902 14.262 9.178 22.826 9.178 8.956 0 17.334-3.556 23.534-9.998 6.088-6.274 9.346-14.54 9.198-23.31-0.168-8.77-3.706-16.924-10.016-23.012l-139.972-135 3.24-13.144c1.9-7.614 2.848-15.118 2.848-22.286-0.020-51.35-41.724-93.13-92.962-93.13zM129.582 147.298c-19.176 0-34.778 15.64-34.778 34.854s15.602 34.872 34.778 34.872c19.214 0 34.854-15.658 34.854-34.872s-15.64-34.854-34.854-34.854zM900.3 149.382c-16.924 0.876-30.832 16.626-29.994 34.37 9.216 189.104-137.142 350.506-326.266 359.778-5.846 0.298-11.748 0.428-17.576 0.428-47.234 0-93.314-9.7-136.974-28.84-4.226-1.844-8.658-2.774-13.164-2.774-13.014 0-24.8 7.708-29.994 19.66-3.538 8.024-3.724 16.942-0.522 25.116 3.184 8.154 9.346 14.56 17.352 18.060 52 22.77 107.054 34.314 163.672 34.314 6.778 0 13.516-0.168 20.35-0.484 225.242-11.078 399.584-203.292 388.654-428.478-0.876-17.464-15.248-31.148-32.73-31.148l-2.808-0.002zM193.406 339.066c-19.158 0-34.742 15.64-34.742 34.834 0 19.176 15.584 34.798 34.742 34.798 19.214 0 34.854-15.62 34.854-34.798-0.002-19.196-15.64-34.834-34.854-34.834z" />
<glyph unicode="&#xe013;" glyph-name="ee-icon-size" d="M868.072 747.92c0.018 29.658-22.38 53.77-51.722 53.77h-611.494c-29.36 0-53.23-23.888-53.23-53.248l-0.93-611.664c0-29.324 23.888-53.192 53.23-53.192h611.476c29.342 0 53.23 23.868 53.21 52.912l-0.54 611.422zM801.532 149.662l-584.742 1.062 0.93 583.848 1.062 1.062 584.742-1.062-1.992-584.91zM277.598 183.286c0.876 0 1.732 0.018 2.588 0.112l148.816 13.946c7.372 0.67 14.056 4.226 18.786 9.924 4.73 5.734 6.964 12.922 6.256 20.294-1.34 14.374-13.164 25.21-27.518 25.21-0.894 0-1.806-0.056-2.718-0.168l-58.926-5.51-0.614 1.284 101.916 101.86c13.572 13.61 13.572 35.746 0 49.338-6.59 6.59-15.36 10.24-24.688 10.24-9.31 0-18.078-3.63-24.65-10.202l-101.898-101.916-1.284 0.596 5.51 58.834c0.688 7.392-1.546 14.596-6.256 20.312-4.73 5.716-11.412 9.216-18.786 9.904-0.894 0.094-1.788 0.148-2.682 0.148-14.354 0-26.214-10.836-27.536-25.19l-13.908-148.722c-0.782-8.23 2.142-16.328 8.006-22.192 5.194-5.234 12.156-8.102 19.586-8.102zM602.372 485.552l101.842 101.916 1.284-0.614-5.51-58.926c-0.112-0.95-0.168-1.862-0.168-2.718 0-14.354 10.818-26.178 25.21-27.536 7.372-0.688 14.56 1.526 20.294 6.274 5.716 4.73 9.254 11.394 9.924 18.786l13.946 148.816c0.094 0.838 0.112 1.712 0.112 2.588 0 7.428-2.848 14.392-8.118 19.624-5.864 5.864-13.964 8.788-22.192 8.006l-148.722-13.908c-14.336-1.34-25.172-13.182-25.172-27.536 0-0.894 0.038-1.788 0.148-2.682 0.688-7.372 4.19-14.038 9.886-18.786 5.716-4.73 12.902-6.964 20.332-6.256l58.814 5.51 0.596-1.284-101.898-101.898c-6.59-6.59-10.222-15.36-10.222-24.67 0-9.328 3.63-18.096 10.258-24.688 13.61-13.608 35.71-13.608 49.356-0.018z" />
<glyph unicode="&#xe014;" glyph-name="ee-icon-simcard" d="M351.66 83.326c-3.24 0-6.424 0.204-9.552 0.596-2.792 0.39-5.66 0.968-8.508 1.638-2.848 0.688-6.032 1.712-9.122 2.942-2.402 0.968-4.766 2.010-7.074 3.202-3.166 1.638-5.66 3.11-8.080 4.748-2.83 1.936-5.158 3.668-7.41 5.642-1.824 1.526-3.91 3.5-5.958 5.586-1.954 2.048-3.836 4.134-5.678 6.48-1.694 2.104-3.332 4.356-4.952 6.832-1.434 2.104-2.942 4.636-4.356 7.28-1.21 2.16-2.494 4.784-3.686 7.504-1.154 2.57-2.196 5.306-3.166 8.154-0.912 2.83-1.712 5.474-2.384 8.192-0.708 2.83-1.322 5.716-1.788 8.658-0.466 2.886-0.8 5.754-1.062 8.714-0.168 2.252-0.372 17.446-0.372 53.36v483.492c0 3.016 0.112 6.032 0.372 9.012 0.242 3.034 0.596 5.902 1.062 8.732 0.466 2.942 1.080 5.808 1.768 8.62 0.67 2.718 1.49 5.436 2.328 8.098 1.062 3.090 2.104 5.79 3.24 8.396 1.192 2.7 2.438 5.288 3.816 7.782 1.304 2.364 2.736 4.748 4.226 7 1.788 2.682 3.426 4.934 5.176 7.094 1.75 2.142 3.556 4.17 5.4 6.088 2.178 2.216 4.134 4.058 6.144 5.772 2.252 1.9 4.486 3.594 6.778 5.176 2.812 1.918 5.4 3.462 8.024 4.822 2.42 1.284 5.008 2.438 7.634 3.5 3.296 1.248 6.218 2.196 9.178 2.924 2.718 0.688 5.808 1.284 8.974 1.658 2.756 0.354 5.846 0.54 9.012 0.54h270.298c10.78 0 21.020-5.194 27.424-13.89l111.468-151.888c4.338-5.884 6.628-12.846 6.628-20.126v-392.844c0-23.496-0.168-50.176-0.41-53.452-0.28-3.072-0.614-6.182-1.172-9.234-0.428-2.7-1.024-5.474-1.712-8.192-0.614-2.588-1.452-5.268-2.308-7.95-0.912-2.848-2.086-5.808-3.408-8.732-1.172-2.662-2.402-5.194-3.816-7.67-1.228-2.234-2.662-4.71-4.226-6.964-1.602-2.42-3.258-4.654-5.008-6.852-1.452-1.844-3.388-3.984-5.362-6.032-2.086-2.16-4.264-4.226-6.534-6.070-1.954-1.732-4.376-3.5-6.908-5.214-2.384-1.602-4.896-3.128-7.484-4.506-2.55-1.248-4.934-2.364-7.316-3.314-3.63-1.452-6.702-2.42-9.83-3.146-2.57-0.634-5.38-1.172-8.322-1.582-2.998-0.41-6.162-0.596-9.346-0.596l-332.64 0.002zM343.002 727.738l-1.844-2.83c-1.992-4.040-2.29-4.86-2.57-5.678l-0.8-2.83c-0.28-1.098-0.502-2.16-0.688-3.276-0.148-0.894-0.298-2.122-0.39-3.352-0.094-1.024-0.168-2.234-0.168-3.426v-483.496c0-1.918 0.074-39.75 0.224-47.98v-0.82l0.354-2.402c0.148-1.024 0.372-2.048 0.634-3.054l1.098-3.686 0.95-2.308 1.322-2.476c0.13-0.26 2.718-4.022 2.83-4.17l0.838-0.95 1.042-0.782 3.314-3.072 4.096 0.28 334.754-0.038 5.158 6.126 2.458 4.394c0-0.056 0.018-0.074 0.056-0.074 0.112 0 0.39 0.578 0.466 0.764 1.49 3.966 1.806 4.952 2.030 5.94l0.596 2.96 0.354 2.476c0.204 9.514 0.224 46.936 0.224 48.854l-0.004 381.71-94.654 129.006h-257.398l-4.282-5.81zM464.58 233.258c-22.118 0-40.104 23.44-40.104 52.224v134.368c0 28.766 17.986 52.186 40.104 52.186h91.694c22.118 0 40.104-23.404 40.104-52.186v-134.368c0-28.784-18.004-52.224-40.104-52.224h-91.694z" />
<glyph unicode="&#xe015;" glyph-name="ee-icon-service" d="M184.748 84.462c-8.77 0-17.036 3.426-23.236 9.626s-9.626 14.448-9.626 23.216c0 8.788 3.426 17.036 9.626 23.236l187.448 187.486-74.138 254.846c-3.352 11.524-0.168 23.942 8.304 32.396l175.606 175.662c6.2 6.2 14.466 9.626 23.236 9.626s17.018-3.426 23.216-9.626c6.218-6.2 9.644-14.448 9.644-23.216 0-8.788-3.426-17.036-9.626-23.254l-161.866-161.922 69.148-237.53 237.494-69.054 161.866 161.792c6.218 6.218 14.448 9.644 23.236 9.644 8.77 0 17.018-3.426 23.216-9.626 6.218-6.218 9.644-14.466 9.644-23.254 0-8.77-3.426-17.018-9.644-23.216l-175.606-175.57c-6.126-6.144-14.578-9.662-23.162-9.662v0c-3.11 0-6.182 0.446-9.16 1.322l-254.992 74.17-187.392-187.486c-6.2-6.2-14.448-9.606-23.236-9.606zM452.46 384.494l-49.73 185.604 135.856 135.912 185.568-49.71 49.766-185.642-135.876-135.912-185.584 49.748z" />
<glyph unicode="&#xe016;" glyph-name="ee-icon-search" d="M184.358 83.698c-8.974 0-17.408 3.482-23.72 9.83-6.368 6.368-9.868 14.764-9.868 23.738s3.5 17.426 9.85 23.776l211.39 211.54-5.418 7.372c-34.964 47.718-53.434 104.262-53.434 163.486 0 152.892 124.406 277.28 277.3 277.28 152.856 0 277.244-124.388 277.244-277.28 0-152.93-124.388-277.356-277.244-277.356-59.244 0-115.786 18.526-163.56 53.564l-7.372 5.38-211.41-211.502c-6.35-6.364-14.766-9.828-23.758-9.828zM590.458 733.528c-115.86 0-210.106-94.246-210.106-210.088 0-55.65 21.634-108.134 60.882-147.736l1.526-1.526c39.49-39.192 91.992-60.806 147.698-60.806 115.824 0 210.032 94.246 210.032 210.068-0.002 115.844-94.21 210.088-210.032 210.088z" />
<glyph unicode="&#xe017;" glyph-name="ee-icon-minus" d="M194.542 447.758c0-27.462 22.248-49.71 49.73-49.71h531.978c27.462 0 49.748 22.248 49.748 49.71 0 27.48-22.286 49.748-49.748 49.748h-531.98c-27.48 0-49.728-22.268-49.728-49.748z" />
<glyph unicode="&#xe018;" glyph-name="ee-icon-music" d="M303.644 83.716c-63.954 0-115.972 52-115.972 115.936s52.020 115.936 115.972 115.936c10.612 0 21.41-1.546 32.060-4.618l18.45-5.324v332.894c0 14.616 9.812 27.63 23.85 31.67l417.792 120.236c3.016 0.876 6.070 1.322 9.142 1.322 7.074 0 14.094-2.364 19.792-6.646 8.21-6.2 13.108-16.030 13.108-26.344v-440.226c0-2.272-0.28-4.674-0.876-7.298l-0.28-1.21-0.074-1.248c-2.998-61.812-53.75-110.238-115.526-110.238-63.972 0-115.992 52-115.992 115.936 0 63.916 52.038 115.916 115.992 115.916 10.836 0 21.728-1.582 32.34-4.692l18.506-5.4v294.648l-351.884-101.282v-414.106c0-2.234-0.242-4.486-0.744-6.888l-0.204-0.93-0.074-0.95c-4.506-60.064-55.204-107.094-115.378-107.094z" />
<glyph unicode="&#xe019;" glyph-name="ee-icon-musicstore" d="M856.064 617.276l-324.198 255.832c-5.808 4.618-13.108 7.15-20.536 7.15s-14.726-2.532-20.554-7.15l-327.402-259.35c-8.024-6.33-12.604-15.826-12.604-26.010v-470.63c0-18.264 14.876-33.122 33.14-33.122s33.14 14.858 33.14 33.122v454.582l294.28 233.174 291.076-229.656v-424.942h-246.82c-18.264 0-33.122-14.876-33.122-33.158 0-18.264 14.858-33.122 33.122-33.122h279.98c18.264 0 33.122 14.858 33.122 33.122v474.148c0 10.204-4.6 19.68-12.624 26.010zM613.6 381.402c-6.070 1.806-12.4 3.054-19.046 3.054-37.664 0-68.31-30.702-68.31-68.328 0-37.664 30.646-68.292 68.31-68.292 36.138 0 65.498 28.318 67.788 63.934 0.558 2.066 0.95 4.226 0.95 6.498v230.55c0 7.802-3.668 15.174-9.886 19.94-6.218 4.674-14.354 6.106-21.858 3.948l-218.746-62.948c-10.686-3.11-18.022-12.772-18.022-23.868v-164.584c-6.032 1.75-12.288 2.978-18.898 2.978-37.664 0-68.292-30.626-68.292-68.292s30.626-68.218 68.292-68.218c35.43 0 64.232 27.090 67.566 61.644 0.578 2.104 1.006 4.282 1.006 6.59v206.98l169.164 48.724v-130.31z" />
<glyph unicode="&#xe01a;" glyph-name="ee-icon-new" horiz-adv-x="1488" d="M448.558 443.238c-18.266 0-33.108-15.866-33.108-35.36v-192.622c0-2.064 0-4.11 0.018-6.082l-115.562 207.112c-9.060 17.094-24.18 26.504-42.538 26.504-25.798 0-45.236-21.372-45.236-49.682v-273.94c0-19.178 15.16-35.322 33.126-35.322 18.88 0 33.108 15.178 33.108 35.322l-0.016 192.642c0 3.328 0 6.528-0.018 9.672l118.258-211.482c9.078-16.294 23.844-25.278 41.534-25.278 24.85 0 43.58 20.74 43.58 48.284v274.874c-0.038 19.828-14.582 35.358-33.146 35.358zM748.818 154.046h-131.148v76.67h126.274c18.172 0 33.536 15.548 33.536 33.962 0 19.066-14.712 33.962-33.536 33.962h-126.274v74.344h130.256c18.432 0 33.962 15.568 33.962 33.962 0 18.992-15.252 34.428-33.962 34.428h-151.46c-27.492 0-46.704-19.492-46.704-47.374v-260.976c0-27.454 19.64-47.394 46.704-47.394h152.372c18.73 0 33.926 15.438 33.926 34.41-0.020 18.436-15.57 34.006-33.946 34.006zM1195.088 441.676c-17.67 5.17-35.638-5.97-40.492-25.834l-38.334-208.636-43.264 194.258c-5.914 28.234-26.356 40.846-43.952 40.846-21.984 0-39.544-16.032-44.658-40.678l-43.524-193.96-37.33 207.892c-2.604 15.604-16.22 27.362-31.73 27.362-3.032 0-6.026-0.428-8.798-1.282-16.834-4.856-26.43-22.822-22.376-41.46l53.848-277.104c4.78-25.186 22.766-42.090 44.77-42.090 20.628 0 37.868 15.846 43.878 40.622l45.16 198.834 44.584-198.742c5.318-24.068 23.27-40.25 44.732-40.25 21.5 0 39.172 16.516 43.952 40.976l55.894 278.070c2.974 16.42-3.834 35.82-22.36 41.176z" />
<glyph unicode="&#xe01b;" glyph-name="ee-icon-numbers" d="M425.146 272.394c22.64 16.906 34.816 42.152 34.816 73.058 0 62.37-49.654 101.134-129.62 101.134-80.58 0-128.688-38.522-128.688-103.014 0-29.23 13.144-55.016 35.504-71.774-27.686-17.668-43.548-47.57-43.548-83.93 0-67.1 52.746-108.748 137.682-108.748 84.638 0 137.216 41.854 137.216 109.214 0 36.472-15.806 66.428-43.362 84.060zM328.928 237.67c46.936 0 74.994-18.264 74.994-48.892 0-29.566-26.81-46.49-73.58-46.49-32.694 0-71.68 8.136-71.68 46.974 0.020 42.116 44.014 48.408 70.266 48.408zM330.826 301.308c-19.55 0-65.034 4.19-65.034 42.728 0 26.102 22.044 39.378 65.498 39.378 64.084 0 64.084-28.932 64.084-38.428 0.002-39.396-45.148-43.678-64.548-43.678zM515.016 147.968c-17.818 0-32.322-14.708-32.322-32.786v-2.83c0-17.762 14.782-32.806 32.322-32.806 18.116 0 32.246 14.41 32.246 32.806v2.83c0.020 18.078-14.466 32.786-32.246 32.786zM701.086 321.732c-27.462 0-51.182-5.958-69.968-12.716 11.822 47.606 46.416 74.398 97.522 74.398 15.508 0 24.856-1.378 32.34-2.494 4.804-0.67 8.918-1.322 13.182-1.322 17.892 0 31.372 13.274 31.372 30.888 0 14.708-10.5 27.48-25.582 31.018-16.068 3.742-37.702 5.082-51.312 5.082-100.278 0-161.532-64.27-168.066-176.388-3.892-69.892 9.7-121.8 40.438-154.234 23.124-24.446 55.222-36.846 95.326-36.846 91.174 0 132.002 62.948 132.002 125.318 0.002 71.252-49.932 117.296-127.254 117.296zM696.338 142.29c-21.542 0-38.428 6.274-50.232 18.712-15.156 16.030-22.676 43.344-21.746 79.258 19.4 9.998 43.064 19.27 73.412 19.27 43.79 0 65.964-18.544 65.964-55.092 0-38.932-25.172-62.148-67.398-62.148z" />
<glyph unicode="&#xe01c;" glyph-name="ee-icon-outbox" d="M835.64 425.584c-18.19 0-32.972-14.802-32.972-32.992v-243.136l-585.952-1.098v244.216c0 18.208-14.802 32.992-32.992 32.992-18.208 0-33.010-14.802-33.010-32.992v-276.070c0-18.228 14.802-33.010 33.010-33.010h651.934c18.228 0 33.010 14.802 33.010 33.010v276.070c-0.018 18.208-14.82 33.010-33.028 33.010zM538.884 624.518c-1.508 1.49-3.184 2.868-5.864 4.542l-2.792 1.49c-0.578 0.336-1.154 0.688-1.788 0.95l-1.192 0.596-2.308 0.466-2.812 0.894c-2.142 0.428-4.3 0.652-6.46 0.652s-4.3-0.224-7.856-1.080l-2.978-0.856c-0.578-0.242-1.936-0.67-1.936-0.67-0.688-0.28-1.266-0.652-3.24-1.768l-2.216-1.098c-1.712-1.172-3.314-2.514-5.12-4.208l-129.602-129.638c-6.218-6.238-9.644-14.522-9.644-23.348s3.426-17.11 9.682-23.348c6.218-6.218 14.504-9.662 23.31-9.662 8.844 0 17.128 3.444 23.384 9.662l73.486 73.094-0.298-29.118v-212.47c0-18.19 14.802-32.992 33.010-32.992s33.010 14.82 33.010 32.992v240.266l73.244-71.718c6.256-6.238 14.54-9.682 23.366-9.682s17.11 3.444 23.328 9.662c6.238 6.238 9.682 14.522 9.682 23.348s-3.444 17.11-9.682 23.348l-129.714 129.694z" />
<glyph unicode="&#xe01d;" glyph-name="ee-icon-pause" d="M335.332 801.504c-27.462 0-49.73-22.248-49.73-49.73v-618.552c0-27.462 22.268-49.73 49.73-49.73s49.73 22.268 49.73 49.73v618.534c0.018 27.498-22.268 49.748-49.73 49.748zM683.994 801.504c-27.462 0-49.71-22.248-49.71-49.73v-618.552c0-27.462 22.248-49.73 49.71-49.73 27.48 0 49.748 22.268 49.748 49.73v618.534c0 27.498-22.266 49.748-49.748 49.748z" />
<glyph unicode="&#xe01e;" glyph-name="ee-icon-paybycreditcard" d="M862.152 532.954c-4.282 12.866-10.5 24.446-18.544 34.518-8.396 10.78-18.692 19.53-29.826 25.358-12.176 6.61-25.936 10.11-39.676 10.11h-528.886c-13.536 0-27.424-3.5-39.21-9.904-11.468-5.958-21.598-14.466-30.124-25.32-7.988-10.054-14.262-21.764-18.636-34.778-4.338-12.996-6.554-26.698-6.554-40.736v-297.966c0-13.964 2.216-27.666 6.572-40.736 4.338-12.866 10.612-24.594 18.618-34.798 8.528-10.686 18.45-19.046 29.566-24.948 12.326-6.758 25.712-10.184 39.788-10.184h528.886c13.926 0 27.554 3.426 39.452 9.942 11.338 6.050 21.41 14.56 29.92 25.264 8.080 10.24 14.392 22.026 18.73 34.964 4.282 13.164 6.442 26.772 6.442 40.476l-0.002 298.002c-0.018 13.778-2.196 27.5-6.516 40.736zM802.686 194.252c0-6.554-1.098-13.35-3.166-19.66-1.788-5.51-4.468-10.594-7.746-14.746-2.83-3.574-5.958-6.274-9.606-8.23-2.476-1.34-5.194-2.030-8.080-2.030l-531.102 0.318-6.256 1.974c-3.276 1.75-6.404 4.45-9.068 7.82-3.202 4.078-5.902 9.178-7.82 14.838-2.066 6.256-3.128 12.884-3.128 19.736v177.822l8.174 0.186 577.778-0.186 0.002-177.842zM802.686 482.612l-585.952 0.298-0.018 9.31c0 6.908 1.042 13.554 3.11 19.736 1.9 5.66 4.542 10.65 7.82 14.802 2.7 3.462 5.772 6.144 9.178 7.932 0.148 0.074 1.862 0.67 3.63 1.172l2.142 0.634-1.024-0.428 3.65 0.856h528.886c2.904 0 5.604-0.744 8.694-2.364 3.128-1.676 6.106-4.32 9.012-8.024 3.166-3.948 5.808-8.88 7.67-14.392 2.142-6.59 3.202-13.294 3.202-21.336v-8.196zM435.126 271.76h-137.16c-16.458 0-29.844-13.406-29.844-29.864s13.386-29.864 29.844-29.864h137.16c16.458 0 29.844 13.406 29.844 29.864s-13.386 29.864-29.844 29.864zM727.58 271.76h-188.974c-16.478 0-29.844-13.406-29.844-29.864s13.368-29.864 29.844-29.864h188.974c16.44 0 29.864 13.406 29.864 29.864s-13.424 29.864-29.864 29.864z" />
<glyph unicode="&#xe01f;" glyph-name="ee-icon-paybydirectdebit" d="M509.672 601.452c-198.098 0-358.716-114.558-358.716-255.814 0-141.182 160.6-255.72 358.716-255.72s358.68 114.54 358.68 255.72c0 141.236-160.564 255.814-358.68 255.814zM541.864 123.224c-164.528 0-300.814 69.39-300.814 137.254 0 68.44 129.434 125.394 300.814 138.072v164.566c0 0 177.246-4.244 189.384-211.578 13.014-222.636-189.384-228.314-189.384-228.314zM398.28 264.314c1.024-50.66 61.886-90.82 143.564-119.882v253.394c-88.082-31.728-144.626-80.042-143.564-133.512z" />
<glyph unicode="&#xe020;" glyph-name="ee-icon-personalise" d="M203.068 534.314h162.668v34.128c3.594 61.552 30.626 132.3 94.916 132.3 17.668-0.056 33.624-2.438 47.868-6.888v54.030h273.018v-148.704h-195.382c0.67-4.096 1.248-8.266 1.694-12.586 0.54-4.17 1.136-15.342 1.434-52.28h224.592c17.966 0 32.432 14.522 32.432 32.452v213.55c0 17.93-14.466 32.452-32.432 32.452h-610.808c-17.892 0-32.396-14.522-32.396-32.452v-213.55c0-17.93 14.504-32.452 32.396-32.452zM784.98 344.186c-12.102 0-22.304-1.526-30.794-4.264-7.206 19.884-17.26 34.444-30.478 43.92-15.564 11.246-32.284 12.866-44.442 10.5-12.624-1.042-23.162-5.884-31.856-13.386-2.756 4.264-5.996 8.080-9.644 11.45-12.568 11.73-29.306 17.39-47.122 16.086-6.442-0.41-12.326-1.62-17.668-3.408 0.186 83.54 0.074 167.974-1.526 180.838-8.154 81.772-64.606 99.142-110.536 99.31-0.112 0-0.186 0-0.298 0-52.726 0-75.254-61.346-78.458-115.824v-253.672c-25.748 26.624-49.896 38.764-50.734 39.154-48.836 30.422-90.056 41.648-123.42 32.972-20.834-5.4-32.508-17.128-38.112-24.372-24.874-24.316-26.792-48.538-23.906-64.866 8.248-47.122 66.3-76.372 84.638-84.452 34.072-24.446 61.216-69.688 79.76-129.936h65.276c-19.438 73.058-53.396 142.746-112.174 182.96-1.732 1.154-3.538 2.196-5.474 2.998-21.914 9.272-48.816 28.43-50.754 39.266-0.354 1.954 2.662 6.218 7.392 10.594 2.458 2.272 7.392 4.598 8.992 7.504 5.808 1.49 27.796 3.78 77.246-26.978 3.352-1.676 81.25-42.394 81.25-141.182v-16.85c0-17.166 13.946-31.13 31.13-31.13 17.278 0 31.242 13.964 31.242 31.13v16.85c0 0.354 0 0.726-0.168 1.118v406.956c1.62 25.582 10.874 52.038 16.366 55.482 45.446 9.942 46.546-21.076 49.208-47.812 1.414-15.454 0.782-181.732 0-298.934-0.614-13.628-0.298-23.888-0.056-27.5 0.764-16.7 14.484-29.79 31.13-29.79 0.168 0 0.298 0 0.484 0.038 16.962 0.316 30.496 14 30.626 30.868 0.112 7.484 0.112 16.7 0.186 27.312 2.16 36.286 11.934 68.626 22.882 69.818 1.824-1.75 11.096-13.89 11.096-83.112 0-1.824 0-3.444 0-4.952-0.372-8.098-0.372-13.572-0.372-14.616 0.13-17.072 14.094-31.502 31.242-31.502 0 0 0 0 0.112 0 22.658 0.112 28.858 15.454 30.646 32.098h0.242c0 1.228 0 2.384 0.13 3.706 0.112 2.494 0.186 4.972 0.316 7.428 1.62 28.876 9.328 69.67 15.584 76.222 1.378 0.038 2.662 0.148 3.966 0.336 3.63-3.742 16.812-22.1 16.812-89.888 0-16.142 12.344-29.602 28.448-31.018 15.024-1.844 30.478 9.606 33.364 25.526 1.396 8.080 2.234 15.9 3.146 23.348 0.726 7.206 1.806 18.042 2.328 19.754 0 0 3.016 1.62 12.772 1.62 5.79 0 24.688-10.706 24.688-148.238 0-23.086-0.838-38.224-2.718-49.412h62.836c1.49 13.238 2.252 29.194 2.252 49.412-0.020 78.776-0.020 210.52-87.078 210.52z" />
<glyph unicode="&#xe021;" glyph-name="ee-icon-phone" d="M358.344 83.494c-48.258 0-87.506 45.392-87.506 101.172v515.628c0 55.798 39.248 101.208 87.506 101.208h304.5c48.258 0 87.524-45.392 87.524-101.208v-515.65c0-55.78-39.266-101.172-87.524-101.172l-304.5 0.002zM358.344 735.54c-10.184 0-21.542-15.080-21.542-35.244v-515.65c0-20.126 11.358-35.188 21.542-35.188h304.5c10.184 0 21.56 15.062 21.56 35.188v515.648c0 20.164-11.376 35.244-21.56 35.244l-304.5 0.002zM431.29 204.14c-18.152 0-32.954 14.782-32.954 32.954s14.802 32.972 32.954 32.972h158.646c18.172 0 32.954-14.802 32.954-32.972s-14.782-32.954-32.954-32.954h-158.646z" />
<glyph unicode="&#xe022;" glyph-name="ee-icon-phoneandtablets" d="M241.626 83.604c-34.778 0-61.998 32.322-61.998 73.58v319.934c0 41.24 27.22 73.542 61.998 73.542h121.39v159.408c0 5.642 0.446 11.412 1.36 17.128 0.894 5.38 2.234 10.818 4.002 16.048 1.824 5.344 3.966 10.314 6.572 15.136 2.588 4.748 5.66 9.384 9.086 13.684 3.352 4.17 7.168 8.098 11.282 11.6 4.356 3.686 9.086 6.888 13.982 9.44 5.046 2.662 10.556 4.784 16.030 6.162 5.716 1.47 11.58 2.196 17.538 2.196h317.16c5.92 0 11.86-0.744 17.632-2.234 5.456-1.378 10.836-3.462 15.994-6.2 4.654-2.42 9.346-5.604 13.666-9.234 4.542-3.836 8.322-7.726 11.6-11.86 3.426-4.32 6.404-8.826 8.88-13.406 2.55-4.692 4.766-9.738 6.61-15.062 1.75-5.138 3.128-10.65 4.078-16.328 0.912-5.436 1.34-11.208 1.34-17.11v-460.968c0-5.884-0.428-11.674-1.34-17.204-0.95-5.566-2.328-11.040-4.078-16.198-1.9-5.474-4.152-10.576-6.61-15.080-2.514-4.58-5.566-9.178-8.88-13.386-3.202-4.096-7.168-8.154-11.524-11.822s-8.974-6.778-13.74-9.31c-5.38-2.774-10.612-4.822-15.956-6.182-5.79-1.47-11.71-2.234-17.668-2.234l-260.878 0.006-1.954-19.884c-7.262-32.414-31.222-54.216-59.596-54.216h-195.978zM245.704 149.7h187.782l0.002 334.884h-187.784v-334.884zM433.562 727.812c-1.284-2.402-2.010-4.022-2.606-5.772-0.484-1.49-1.024-3.462-1.36-5.456-0.336-2.196-0.522-4.338-0.522-6.498v-159.408h8.508c34.742 0 61.962-32.302 61.962-73.542v-253.3h265.756l3.166 6.126 1.136 1.936c1.192 2.328 1.862 3.854 2.402 5.51 0.502 1.47 0.95 3.408 1.266 5.344 0.336 2.086 0.502 4.208 0.502 6.368v460.968c0 2.16-0.186 4.3-0.502 6.33-0.26 1.824-0.726 3.706-1.304 5.53-0.614 1.768-1.304 3.37-2.066 4.804-0.912 1.676-1.824 2.998-2.83 4.264l-2.626 3.872-4.394 0.522-322.542-0.002-3.946-7.596zM592.244 278.332c0 0 0 0 0 0 0-15.106 12.246-27.35 27.35-27.35 15.106 0 27.35 12.246 27.35 27.35 0 0 0 0 0 0s0 0 0 0c0 15.106-12.246 27.35-27.35 27.35-15.106 0-27.35-12.246-27.35-27.35s0 0 0 0zM314.144 193.378c0 0 0 0 0 0 0-13.172 10.678-23.85 23.85-23.85s23.85 10.678 23.85 23.85c0 0 0 0 0 0s0 0 0 0c0 13.172-10.678 23.85-23.85 23.85s-23.85-10.678-23.85-23.85 0 0 0 0z" />
<glyph unicode="&#xe023;" glyph-name="ee-icon-photo" d="M858.876 609.922c-5.214 10.984-12.604 20.76-21.932 29.082-9.086 8.136-19.624 14.484-31.316 18.878-11.822 4.45-24.334 6.702-37.18 6.702l-519.336 0.002c-12.828 0-25.432-2.29-37.366-6.758-11.636-4.45-22.062-10.762-31.018-18.748-9.346-8.304-16.774-18.208-22.1-29.38-5.474-11.71-8.248-24.092-8.248-36.846v-397.702c0-12.66 2.812-25.134 8.322-36.976 5.25-11.022 12.548-20.722 21.784-28.914 8.992-8.154 19.474-14.504 31.166-18.954 11.786-4.542 24.39-6.832 37.46-6.832h519.336c13.070 0 25.526 2.252 37.124 6.722 11.86 4.394 22.342 10.724 31.298 18.842 9.402 8.36 16.83 18.19 22.082 29.156 5.492 11.636 8.266 24.074 8.266 36.938l-0.002 397.738c0 12.996-2.792 25.452-8.34 37.050zM773.306 149.848c-1.582-0.224-3.166-0.372-4.86-0.372h-519.334c-5.082 0-9.682 0.838-13.87 2.476-4.114 1.526-7.652 3.668-10.798 6.516-2.644 2.364-4.71 5.026-6.032 7.782-1.378 2.942-2.066 5.958-2.066 8.918v11.17l163.17 269.182 194.97-231.926c4.078-3.742 9.458-5.808 15.136-5.808 5.38 0 10.576 1.862 14.298 4.916 2.626 2.756 15.696 22.082 27.22 39.060 9.104 13.46 19.010 28.114 27.61 40.364l7.224 10.334 123.476-160.694-16.144-1.918zM801.252 210.078l-118.3 153.86c-4.264 5.604-10.464 8.806-16.962 8.806l-1.266-0.038c-7.094-0.148-13.74-3.668-17.836-9.496-0.018 0-19.288-27.312-38.39-54.756l-19.438-28.018-7.726 9.682c-30.142 37.608-88.288 104.728-188.584 217.684-4.244 4.784-10.388 7.522-16.83 7.522l-1.974-0.074c-7.056-0.634-13.46-4.636-17.128-10.706l-140.436-231.684-0.002 300.012c0 2.942 0.67 5.94 1.954 8.732 1.434 3.016 3.556 5.79 6.274 8.192 2.924 2.626 6.554 4.804 10.538 6.33 4.412 1.658 9.104 2.494 13.964 2.494h519.336c4.916 0 9.606-0.838 13.964-2.476 4.002-1.526 7.54-3.65 10.594-6.348 2.662-2.384 4.84-5.194 6.404-8.378 1.21-2.7 1.844-5.566 1.844-8.546v-362.794zM721.994 541.872c-22.808 0-41.35-18.506-41.35-41.24 0-22.808 18.544-41.37 41.35-41.37s41.352 18.564 41.352 41.372c0 22.732-18.544 41.238-41.352 41.238z" />
<glyph unicode="&#xe024;" glyph-name="ee-icon-pinlocation" d="M719.91 616.96c-2.792 14.932-6.852 29.286-12.064 42.728-5.232 13.666-11.71 26.828-19.214 39.136-7.428 12.102-16.030 23.57-25.526 34.090-9.552 10.52-20.052 20.070-31.222 28.392-11.412 8.508-23.59 15.77-36.194 21.616-12.902 6.050-26.456 10.686-40.272 13.758-14.038 3.202-28.654 4.84-43.436 4.84-14.726 0-29.268-1.602-43.25-4.804-13.834-3.11-27.406-7.746-40.346-13.778-12.456-5.772-24.67-13.070-36.25-21.652-11.358-8.508-21.84-18.042-31.166-28.374-9.458-10.426-18.078-21.932-25.618-34.182-7.522-12.326-13.982-25.414-19.158-38.912-5.288-13.74-9.346-28.15-12.064-42.84-2.792-14.97-4.226-30.384-4.226-45.838s1.414-30.868 4.208-45.82c2.736-14.858 6.832-29.25 12.418-43.79l165.422-377.986c5.102-12.14 16.906-19.996 30.086-19.996 13.2 0 25.004 7.856 30.086 20.034l165.664 378.732c5.25 13.592 9.346 28.058 12.158 42.97 2.774 14.97 4.208 30.404 4.208 45.856-0.018 15.436-1.452 30.87-4.244 45.82zM655.806 537.2c-2.048-10.854-4.99-21.336-8.546-30.534l-135.26-304.892-6.926 15.36-128.038 288.638c-3.872 10.092-6.852 20.666-8.826 31.428-2.066 11.078-3.11 22.49-3.11 33.922s1.042 22.864 3.11 33.94c1.974 10.724 4.952 21.28 8.826 31.334 3.78 9.85 8.452 19.362 13.89 28.244 5.418 8.788 11.6 17.036 18.376 24.482 6.534 7.242 13.814 13.908 21.728 19.81 8.062 5.94 16.44 10.948 24.874 14.858 8.694 4.058 17.854 7.186 27.202 9.29 9.42 2.142 19.14 3.22 28.914 3.22s19.55-1.098 29.044-3.258c9.216-2.048 18.338-5.176 27.126-9.29 8.638-3.984 16.942-8.956 24.724-14.764 7.746-5.754 15.1-12.436 21.894-19.902 6.74-7.466 12.866-15.658 18.246-24.372 5.38-8.806 10.072-18.376 13.926-28.468 3.798-9.774 6.758-20.294 8.826-31.26 2.066-11.004 3.11-22.416 3.11-33.886-0.018-11.466-1.062-22.86-3.11-33.9zM582.396 637.85c4.562 4.58 7.094 10.65 7.094 17.092s-2.532 12.512-7.094 17.072-10.63 7.074-17.092 7.074-12.53-2.514-17.092-7.074l-36.212-36.082-5.324 5.158-30.924 30.962c-4.562 4.562-10.65 7.074-17.11 7.074s-12.548-2.514-17.092-7.074c-9.42-9.42-9.42-24.762-0.018-34.182l30.962-30.962 5.046-5.306-35.988-36.25c-9.42-9.44-9.42-24.78-0.018-34.182 4.58-4.58 10.65-7.094 17.11-7.094s12.548 2.514 17.11 7.074l30.944 30.944 5.288 5.436 36.23-36.38c4.562-4.562 10.63-7.074 17.092-7.074s12.53 2.514 17.092 7.074 7.094 10.63 7.094 17.092-2.532 12.53-7.094 17.092l-34.76 36.23 3.816 5.306 30.94 30.98z" />
<glyph unicode="&#xe025;" glyph-name="ee-icon-play" d="M296.96 83.846c-5.046 0-10.146 1.192-14.746 3.462-11.264 5.604-18.284 16.942-18.284 29.566l0.002 651.544c0 12.624 7.020 23.962 18.338 29.584 4.542 2.272 9.626 3.444 14.708 3.444 7.262 0 14.15-2.308 19.922-6.702l430.118-325.836c8.154-6.2 13.052-16.048 13.052-26.308 0-10.24-4.916-20.144-13.088-26.364l-430.080-325.67c-5.736-4.354-12.812-6.72-19.942-6.72zM351.548 684.954l-21.188 14.932-0.39-488.244 0.39-27.462 341.644 258.458-14.076 10.408z" />
<glyph unicode="&#xe026;" glyph-name="ee-icon-plus" d="M819.368 498.828h-260.488v251.94c0 27.22-22.082 49.3-49.3 49.3-27.22 0-49.3-22.1-49.3-49.3l-0.002-251.94h-260.56c-27.202 0-49.3-22.118-49.3-49.3 0-27.202 22.1-49.3 49.3-49.3h260.542v-267.432c0-27.202 22.1-49.282 49.3-49.282 27.238 0 49.3 22.1 49.3 49.282l0.002 267.43h260.486c27.202 0 49.282 22.118 49.282 49.3 0.020 27.184-22.062 49.302-49.262 49.302z" />
<glyph unicode="&#xe027;" glyph-name="ee-icon-power" d="M509.208 84.442c-197.948 0-358.996 161.048-358.996 359.034 0 137.98 76.986 261.492 200.946 322.374 4.784 2.346 9.868 3.538 15.136 3.538 13.238 0 25.098-7.372 30.924-19.252 4.040-8.23 4.636-17.576 1.658-26.288-2.96-8.694-9.142-15.696-17.39-19.754-100.24-49.208-162.5-149.076-162.5-260.618 0-160.004 130.196-290.164 290.202-290.164 160.042 0 290.202 130.16 290.202 290.164 0 111.746-62.39 211.688-162.778 260.804-8.266 4.040-14.484 11.060-17.464 19.754-2.978 8.694-2.384 18.022 1.658 26.288 5.808 11.898 17.65 19.288 30.944 19.288 5.25 0 10.314-1.172 15.1-3.5 124.22-60.788 201.356-184.414 201.356-322.634 0.016-197.986-161.050-359.034-358.998-359.034zM509.208 497.58c-19.456 0-35.282 15.826-35.282 35.3v334.308c0 19.474 15.826 35.3 35.282 35.3 19.474 0 35.3-15.826 35.3-35.3v-334.326c-0.020-19.456-15.826-35.282-35.3-35.282z" />
<glyph unicode="&#xe028;" glyph-name="ee-icon-print" d="M804.138 551.498l-106.18-0.056 0.204 7.558v172.162l-392.564 0.002v-172.162l-0.056-7.558-90.13 0.056c-35.636 0-64.624-28.988-64.624-64.606v-237.084c0-35.598 28.988-64.586 64.624-64.586l98.266 0.26-0.186-7.746v-94.246h392.602v94.246l-0.28 7.746 98.322-0.26c35.598 0 64.586 28.988 64.586 64.586l0.002 237.084c0 35.616-28.97 64.604-64.586 64.604zM802.648 258.746l0.038-7.242h-97.168l0.558 7.242v45.744l-392.584 0.002v-45.744l0.186-7.242h-97.168l0.298 7.242v219.19l-0.298 7.746h586.174l-0.038-7.746 0.002-219.192zM731.042 431.988c-13.274 0-24.074-10.836-24.074-24.11 0-13.312 10.798-24.148 24.074-24.148s24.074 10.836 24.074 24.148c0 13.274-10.798 24.11-24.074 24.11z" />
<glyph unicode="&#xe029;" glyph-name="ee-icon-processing" d="M509.748 78.112c-18.284 0-33.158 14.876-33.158 33.158v146.916c0 18.264 14.876 33.14 33.158 33.14 18.264 0 33.14-14.876 33.14-33.14v-146.916c0-18.282-14.876-33.158-33.14-33.158zM744.076 175.188c-8.862 0-17.166 3.462-23.404 9.718l-103.908 103.89c-6.274 6.238-9.718 14.54-9.718 23.384 0 8.862 3.444 17.204 9.718 23.478 6.256 6.274 14.578 9.718 23.422 9.718 8.862 0 17.166-3.462 23.422-9.7l103.89-103.908c6.292-6.256 9.718-14.578 9.718-23.44s-3.462-17.166-9.7-23.384c-6.274-6.312-14.596-9.756-23.44-9.756zM275.418 175.188c-8.862 0-17.184 3.462-23.44 9.718-6.274 6.256-9.718 14.56-9.718 23.422 0 8.88 3.444 17.184 9.7 23.44l103.87 103.89c6.256 6.256 14.616 9.7 23.478 9.7 8.844 0 17.166-3.462 23.422-9.7 12.922-12.922 12.922-33.96 0-46.862l-103.87-103.87c-6.256-6.294-14.578-9.738-23.442-9.738zM694.254 409.516c-18.284 0-33.158 14.876-33.158 33.158 0 18.284 14.876 33.14 33.158 33.14h146.898c18.264 0 33.14-14.858 33.14-33.14 0-18.284-14.876-33.158-33.14-33.158h-146.898zM178.344 409.516c-18.284 0-33.158 14.876-33.158 33.158 0 18.284 14.876 33.14 33.158 33.14h146.934c18.284 0 33.158-14.858 33.158-33.14 0-18.284-14.876-33.158-33.158-33.158h-146.934zM379.326 539.936c-8.844 0-17.166 3.444-23.458 9.718l-103.89 103.89c-12.922 12.922-12.922 33.978 0 46.918 6.256 6.256 14.596 9.718 23.44 9.718s17.184-3.462 23.458-9.718l103.89-103.908c12.922-12.922 12.922-33.978 0-46.918-6.274-6.256-14.614-9.7-23.44-9.7zM640.204 539.974c-8.88 0-17.204 3.444-23.44 9.7-6.274 6.274-9.718 14.596-9.718 23.458s3.462 17.184 9.718 23.458l103.89 103.852c6.238 6.256 14.522 9.7 23.404 9.7 8.862 0 17.184-3.444 23.44-9.7 6.274-6.274 9.718-14.616 9.718-23.458 0-8.862-3.462-17.184-9.718-23.44l-103.89-103.87c-6.238-6.256-14.56-9.7-23.404-9.7zM509.748 593.948c-18.284 0-33.158 14.876-33.158 33.158l-0.002 146.936c0 18.284 14.876 33.158 33.158 33.158 18.264 0 33.14-14.876 33.14-33.158v-146.934c0.002-18.284-14.874-33.16-33.138-33.16z" />
<glyph unicode="&#xe02a;" glyph-name="ee-icon-readmorebook" d="M835.566 588.046h-185.344c-12.66 0-77.34-1.228-137.514-24.222-0.782 0.038-1.546 0.224-2.29 0.224-0.82 0-1.564-0.186-2.346-0.224-58.536 22.416-120.46 24.222-138.444 24.222h-185.178c-18.246 0-33.104-14.838-33.104-33.084v-410.344c0-18.228 14.838-33.048 33.104-33.048h186.126c7.354 0 73.338-0.726 125.952-24.892 4.3-2.048 8.992-3.072 13.87-3.072 4.86 0 9.496 1.024 13.814 3.034 52.652 24.204 119.418 24.93 126.938 24.93h184.394c18.246 0 33.084 14.82 33.084 33.048v410.344c0.022 18.246-14.816 33.084-33.062 33.084zM473.348 164.5c-46.526 12.028-89.274 13.2-103.722 13.2h-152.092v344.158l153.042 0.018c6.274 0 55.632-0.558 102.772-15.956v-341.42zM547.412 505.902c47.308 15.398 97.28 15.956 103.74 15.956h152.502v-344.158h-153.452c-10.222 0-54.476-0.82-102.79-13.238v341.44zM600.772 430.946h149.746c15.024 0 27.164 12.176 27.164 27.164s-12.14 27.164-27.164 27.164h-149.746c-15.024 0-27.164-12.158-27.164-27.164s12.138-27.164 27.164-27.164zM600.772 323.128h149.746c15.024 0 27.164 12.158 27.164 27.164s-12.14 27.182-27.164 27.182h-149.746c-15.024 0-27.164-12.176-27.164-27.182s12.138-27.164 27.164-27.164zM777.682 242.474c0 15.006-12.14 27.182-27.164 27.182h-149.746c-15.024 0-27.164-12.176-27.164-27.182 0-15.024 12.14-27.146 27.164-27.146h149.746c15.006 0 27.164 12.122 27.164 27.146z" />
<glyph unicode="&#xe02b;" glyph-name="ee-icon-reviewpen" d="M823.594 834.308c-52.746 47.552-141.312 43.084-188.714-9.532-7.596-8.416-6.944-21.374 1.452-28.952l167.694-151.626c3.928-3.538 8.826-5.288 13.702-5.288 5.604 0 11.226 2.252 15.248 6.74 49.376 54.496 45.188 139.134-9.382 188.658zM587.254 729.88c-5.026 4.58-11.488 7.112-18.264 7.112-7.67 0-15.062-3.314-20.256-9.068l-325.596-364.768c-2.792-3.090-4.878-6.888-6.014-10.928l-65.388-233.472c-2.79-10.054 0.188-20.684 7.804-27.704 5.064-4.71 11.636-7.298 18.45-7.298 3.202 0 6.442 0.596 9.7 1.806l225.504 86.742c4.114 1.564 7.746 4.114 10.464 7.242l325.78 364.86c4.784 5.362 7.298 12.586 6.926 19.792-0.336 7.372-3.5 14.132-8.918 19.028l-160.192 146.656zM397.032 212.536l-116.364-44.628-52.858 48.408 33.848 120.926c1.396 5.064 4.99 9.42 9.606 11.618l36.678 17.446c2.42 1.154 5.008 1.768 7.652 1.768 3.24 0 6.424-0.912 9.234-2.626 5.176-3.146 8.472-8.714 8.77-14.876l3.314-67.082 67.324 3.332c5.698 0 11.022-2.662 14.28-7.168 3.668-5.046 4.636-11.468 2.55-17.296l-13.35-38.652c-1.822-5.12-5.75-9.196-10.684-11.17z" />
<glyph unicode="&#xe02c;" glyph-name="ee-icon-roaming" d="M290.238 83.27c-76.968 0-139.6 70.154-139.6 156.356l0.002 227.924c0 86.202 62.612 156.318 139.6 156.318h42.040l0.41 5.38c6.554 85.122 37.74 128.28 92.682 128.28h167.47c54.924 0 86.072-43.156 92.7-128.298l0.39-5.38h42.058c76.968 0 139.58-70.116 139.58-156.318v-227.924c0-86.22-62.612-156.356-139.58-156.356h-437.752zM290.238 556.208c-39.656 0-71.922-39.768-71.922-88.66v-227.924c0-48.928 32.266-88.698 71.922-88.698h437.75c39.638 0 71.904 39.768 71.904 88.698v227.926c0 48.872-32.266 88.66-71.904 88.66l-437.75-0.002zM421.814 678.754c-3.444-4.542-9.662-16.886-12.512-48.518l-0.558-6.348h200.686l-0.54 6.348c-2.886 31.52-9.086 43.92-12.512 48.482l-1.788 2.328h-171.026l-1.75-2.292zM585.486 192.708c-1.992 0.428-3.538 1.768-4.19 3.538l-52.41 145.446-27.536-20.442c-2.792-3.276-3.612-6.778-4.84-16.738-0.336-2.812-0.652-5.306-1.080-7.354-1.172-5.53-2.086-10.984-2.942-16.16-3.854-22.918-7.13-42.43-26.718-58.74-0.95-0.782-2.196-1.228-3.482-1.228-3.518 0.876-4.86 2.308-5.324 4.134l-9.29 37.646-7.074-5.53c-6.368-4.99-11.544-7.316-16.254-7.316-3.742 0-7.094 1.49-9.7 4.338-4.84 3.872-7.206 7.746-7.764 12.14-0.688 5.436 1.378 11.078 6.666 18.246l5.306 7.186-37.758 8.452c-1.862 0.39-3.332 1.712-3.948 3.5-0.634 1.824-0.316 3.742 0.856 5.232 16.384 20.518 38.41 24.372 61.72 28.43 6.014 1.042 12.084 2.086 18.172 3.5 18.748 4.17 24.39 11.748 34.37 27.070l4.096 6.274-146.58 49.71c-1.788 0.596-3.166 2.104-3.594 3.966-0.428 1.824 0.112 3.742 1.47 5.102 1.452 1.434 2.83 3.034 4.19 4.618 5.232 6.050 11.060 12.81 21.15 12.81l171.994-0.018c20.424 0 22.676 1.062 39.768 18.934l35.896 37.478c4.84 5.046 22.006 7.558 30.254 7.558 4.432 0 9.384-0.41 12.14-3.594 7.316-8.36 0.596-37.572-5.268-43.418l-39.62-39.414c-14.652-14.596-15.024-19.792-14.206-39.414 0.148-3.388 0.26-7.15 0.372-11.302l2.29-119.454c0.074-4.598 0.26-8.714 0.39-12.418 1.006-20.926 1.526-32.302-16.644-51.182-1.042-1.080-2.476-1.694-3.966-1.694-0.428 0.014-0.726 0.070-0.912 0.108z" />
<glyph unicode="&#xe02d;" glyph-name="ee-icon-safetysecurity" d="M508.482 83.978c-3.388 0-6.684 0.466-9.812 1.414-348.236 104.802-347.212 655.788-347.006 679.172 0.112 11.916 6.256 22.714 16.422 28.876 5.4 3.296 11.524 5.026 17.744 5.026 5.288 0 10.612-1.266 15.36-3.686l6.386-1.508-3.594 0.484c10.352-2.978 22.938-4.524 36.604-4.524 38.726 0 122.452 13.2 248.088 101.6 5.79 4.058 12.604 6.2 19.698 6.2s13.87-2.16 19.604-6.2c119.362-83.986 202.604-101.618 251.438-101.618 24.744 0 39.918 4.804 43.288 6.498 3.24 1.266 7.968 2.178 12.66 2.178 7.020 0 13.61-1.936 19.066-5.622 9.886-6.666 15.806-17.128 15.806-28.002 0-23.384-4.002-574.184-351.902-678.818-3.204-0.986-6.48-1.47-9.85-1.47zM222.32 705.806c9.44-138.408 55.762-469.066 281.376-550.148l4.784-1.732 4.784 1.732c225.838 81.064 275.028 411.686 285.714 550.056l1.192 15.75-15.77-0.484c-2.402-0.074-4.86-0.112-7.392-0.112-52.318 0-140.028 16.57-260.972 95.512l-7.764 5.046-7.746-5.046c-120.664-78.886-207.984-95.456-259.984-95.456l-17.576 0.28-0.646-15.398zM461.396 385.256c-2.196 0-4.376 0.28-6.534 0.67l-1.862 0.614c-1.434 0.372-2.904 0.744-4.3 1.322l-1.936 1.062c-1.788 0.93-2.756 1.378-3.668 1.992l-4.002 3.202-67.062 64.772c-12.996 12.568-13.33 33.382-0.764 46.396 6.218 6.386 14.616 9.924 23.608 9.924 8.546 0 16.626-3.276 22.77-9.198l44.422-43.008 150.304 136.844c6.050 5.492 13.908 8.528 22.118 8.528 9.216 0 18.042-3.872 24.204-10.668 12.158-13.368 11.208-34.146-2.16-46.322l-173.28-157.734-1.658-1.154-2.588-2.010c-0.838-0.54-1.806-0.986-2.756-1.452l-1.844-0.95c-2.16-0.95-3.5-1.266-4.822-1.602l-1.862-0.54c-2.194-0.446-4.242-0.688-6.328-0.688z" />
<glyph unicode="&#xe02e;" glyph-name="ee-icon-mins" d="M509.672 801.448c-197.986 0-359.052-161.066-359.052-359.052s161.066-359.052 359.052-359.052 359.052 161.066 359.052 359.052-161.066 359.052-359.052 359.052zM551.88 171.316v93.556c0 23.292-18.898 42.188-42.208 42.188-23.292 0-42.188-18.898-42.188-42.188v-93.556c-117.666 18.264-210.664 111.262-228.93 228.91h93.574c23.292 0 42.188 18.898 42.188 42.188 0 23.31-18.878 42.188-42.188 42.188h-93.574c20.406 131.462 134.032 232.504 271.118 232.504v-274.692l194.15-194.132c-40.288-40.308-93.128-67.826-151.942-76.966z" />
<glyph unicode="&#xe02f;" glyph-name="ee-icon-membership" d="M827.206 615.768h-634.304c-18.19 0-32.992-14.802-32.992-32.992v-466.18c0-18.19 14.802-32.972 33.382-32.972h634.286c17.798 0 32.582 14.802 32.582 32.972v466.162c0 18.19-14.782 33.010-32.954 33.010zM794.178 149.57h-268.066v127.498c0 25.804-22.584 46.694-50.456 46.694h-0.652c-18.32-16.104-42.040-26.196-68.292-26.196h-11.282c-26.252 0-49.952 10.092-68.272 26.196h-0.652c-27.89 0-50.456-20.89-50.456-46.694v-110.312l-0.074-17.184h-50.064l0.002 400.194h568.264v-400.196zM575.022 427.26h158.682c11.71 0 21.224 11.432 21.224 25.6 0 14.132-9.514 25.618-21.224 25.618h-158.682c-11.71 0-21.224-11.488-21.224-25.618 0-14.17 9.514-25.6 21.224-25.6zM575.022 348.132h158.682c11.71 0 21.224 11.468 21.224 25.618s-9.514 25.638-21.224 25.638h-158.682c-11.71 0-21.224-11.488-21.224-25.638s9.514-25.618 21.224-25.618zM575.022 264.034h158.682c11.71 0 21.224 11.468 21.224 25.674 0 14.168-9.514 25.638-21.224 25.638h-158.682c-11.71 0-21.224-11.468-21.224-25.638 0-14.206 9.514-25.674 21.224-25.674zM395.432 333.722h11.282c37.46 0 67.844 30.33 67.844 67.808v11.282c0 37.46-30.366 67.808-67.844 67.808h-11.282c-37.46 0-67.808-30.348-67.808-67.808v-11.282c0-37.48 30.348-67.808 67.808-67.808z" />
<glyph unicode="&#xe030;" glyph-name="ee-icon-mb" d="M512.316 397.508c-4.748 35.914-28.82 48.706-49.766 48.706-25.526 0-44.702-16.886-50.028-43.994l-46.508-224.536-47.626 224.628c-5.958 27.48-24.482 43.884-49.58 43.884-27.014 0-46.248-18.674-50.194-48.686l-37.032-277.784c-2.29-18.302 6.48-33.456 22.062-37.776 18.544-4.692 35.746 7.392 37.87 26.066l29.416 233.584 46.042-212.304c6.256-29.416 24.036-46.304 48.724-46.304 24.428 0 42.040 16.886 48.296 46.248l46.006 212.192 29.416-233.268c1.806-15.806 14.448-27.258 30.068-27.258 2.718 0 5.51 0.354 8.508 1.136 15.508 4.264 24.036 19.232 21.802 38.334l-37.476 277.132zM800.21 270.904c15.398 12.604 29.566 34.668 29.566 73.114 0 47.384-33.774 98.398-107.948 98.398h-105.528c-27.126 0-46.118-18.58-46.118-45.15v-268.624c0-26.14 19.4-45.168 46.118-45.168h110.778c70.228 0 112.174 40.364 112.174 107.93 0.018 35.338-14.43 63.88-39.042 79.5zM634.88 237.018h91.75c29.882 0 47.048-16.31 47.048-44.646 0-32.004-15.508-45.614-51.834-45.614h-86.964v90.26zM719.462 299.8h-84.582v79.37h84.582c40.476 0 45.652-21.336 45.652-39.936 0-18.358-5.194-39.434-45.652-39.434z" />
<glyph unicode="&#xe031;" glyph-name="ee-icon-loststolen" d="M493.066 353.214h32.358c124.854 0 226.452 101.506 226.452 226.248v32.378c0 124.854-101.6 226.434-226.452 226.434h-32.358c-124.854 0-226.416-101.58-226.416-226.434v-32.358c0-124.76 101.562-226.268 226.416-226.268zM493.066 773.428h32.358c58.814 0 110.238-31.688 138.5-78.754l-309.34-0.002c28.262 47.068 79.686 78.756 138.482 78.756zM654.652 629.546c0-15.918-25.526-28.84-57.008-28.84-31.464 0-57.008 12.902-57.008 28.84s25.526 28.858 57.008 28.858c31.482 0 57.008-12.92 57.008-28.858zM463.128 629.546c0-15.918-25.526-28.84-57.008-28.84s-57.008 12.902-57.008 28.84c0 15.938 25.526 28.858 57.008 28.858s57.008-12.92 57.008-28.858zM686.47 568.628c-5.642-83.95-75.628-150.566-161.048-150.566h-32.358c-85.42 0-155.388 66.634-161.010 150.566h354.416zM704.884 366.824h-1.62c-48.202-42.282-110.22-68.682-179.182-68.682h-29.678c-68.72 0-130.756 26.4-178.94 68.682h-1.62c-73.132 0-132.376-54.756-132.376-122.434v-160.004h655.508v160.004c0.004 67.66-58.996 122.434-132.092 122.434z" />
<glyph unicode="&#xe032;" glyph-name="ee-icon-login" d="M235.744 83.494c-9.122 0-17.874 3.724-24.018 10.222-6.292 6.61-9.662 15.564-9.272 24.502 0 0.112 0.986 21.858 5.4 53.806 4.022 29.194 11.842 73.262 26.27 117.37 16.72 51.274 38.894 92.738 65.89 123.27 18.692 21.058 39.898 36.976 62.986 47.328l10.556 4.73-8.136 7.056c-15.23 16.608-27.368 35.486-36.1 56.152-10.278 24.278-15.49 50.082-15.49 76.688 0 26.55 5.194 52.28 15.454 76.54 10.036 23.608 24.24 44.666 42.244 62.594 18.042 18.004 39.080 32.172 62.502 42.058 23.756 10.072 50.25 15.398 76.576 15.398 26.288 0 52.746-5.324 76.54-15.378 23.384-9.886 44.442-24.074 62.558-42.188 18.060-17.966 32.19-38.986 42.114-62.482 10.222-24.334 15.416-50.064 15.416-76.54 0-26.456-5.176-52.242-15.378-76.652-8.9-20.908-21.058-39.806-36.12-56.19l-7.838-8.508 10.258-3.258c22.994-10.352 44.144-26.27 62.854-47.308 27.014-30.384 49.226-71.848 66.020-123.27 11.618-35.822 20.48-75.31 26.308-117.332 4.524-32.172 5.456-53.77 5.456-53.918 0.316-8.918-3.090-17.854-9.29-24.464-6.256-6.498-15.024-10.222-24.036-10.222l-549.724-0.004zM510.548 734.608c-17.408 0-34.89-3.518-50.548-10.166-15.546-6.554-29.472-15.918-41.406-27.872-12.008-11.952-21.392-25.898-27.946-41.462-6.778-15.9-10.202-32.88-10.202-50.53s3.462-34.742 10.258-50.79c6.48-15.416 29.678-43.194 30.496-44.218l37.758-47.774c7.968-10.128 9.44-23.626 3.816-35.206-5.51-11.376-17.278-18.73-29.976-18.73-32.228 0-59.374-12.902-82.982-39.47-20.834-23.458-38.446-57.008-52.372-99.756-12.996-39.788-19.996-79.482-23.608-105.732l-1.844-13.852 477.928 1.062-2.606 12.81c-5.38 38.298-13.33 73.876-23.626 105.714-13.982 42.748-31.614 76.316-52.448 99.756-23.646 26.568-50.754 39.47-82.87 39.47-12.698 0-24.446 7.354-29.956 18.73-5.66 11.6-4.226 25.116 3.724 35.244l37.85 47.756c0.894 1.136 23.942 28.82 30.496 44.386 6.722 15.882 10.166 32.916 10.166 50.604 0 17.706-3.462 34.76-10.24 50.66-6.572 15.602-15.918 29.492-27.852 41.258-12.028 12.046-25.954 21.448-41.296 27.928-15.842 6.662-33.38 10.18-50.714 10.18z" />
<glyph unicode="&#xe033;" glyph-name="ee-icon-linkedin" d="M765.952 800.646h-513.526c-53.342 0-96.74-51.218-96.74-114.186v-488.596c0-62.966 43.398-114.204 96.74-114.204h513.526c53.342 0 96.758 51.238 96.758 114.204v488.598c0 62.966-43.416 114.184-96.758 114.184zM796.598 197.864c0-28.336-16.142-48.090-30.646-48.090h-513.526c-14.484 0-30.646 19.754-30.646 48.090v488.598c0 28.336 16.16 48.090 30.646 48.090h513.526c14.504 0 30.646-19.754 30.646-48.090v-488.598zM322.356 260.776h85.922v254.846h-85.922v-254.846zM624.678 515.622c-49.208 0-68.328-11.152-85.178-37.33v37.33h-85.904v-254.846h85.904v164.566c9.774 12.456 23.18 23.7 39.862 23.7 37.478 0 46.118-17.724 46.118-56.916 0-39.172 0.726-131.37 0.726-131.37h81.232v169.5c-0.022 0.038-7.822 85.366-82.76 85.366zM365.326 638.446c-29.324 0-53.118-21.504-53.118-48.016 0-26.53 23.794-48.034 53.118-48.034 29.342 0 53.136 21.486 53.136 48.034 0 26.512-23.794 48.016-53.136 48.016z" />
<glyph unicode="&#xe034;" glyph-name="ee-icon-like" d="M632.162 83.958c-21.634 0-75.98 2.476-113.106 25.432-30.682 19.010-57.418 27.518-86.668 27.518h-62.63l-1.284-1.006c-17.446-13.572-40.718-21.038-65.518-21.038h-24.296c-50.846 0-92.216 31.762-92.216 70.804l-0.002 195.176c0 39.060 41.37 70.824 92.216 70.824h24.296c24.93 0 48.314-7.558 65.816-21.262l1.062-0.838 1.34-0.168c12.512-1.378 24.632-2.086 35.988-2.086 42.022 0 71.046 9.346 79.63 25.638 13.182 24.966 21.020 61.458 28.634 96.74 11.58 54.048 21.522 100.446 52.746 120.348 13.144 8.396 27.742 12.828 42.226 12.828 36.938 0 80.114-29.398 80.114-112.23v-81.286h48.686c1.824 0.112 3.742 0.224 6.032 0.224 40.048 0 86.816-29.25 86.816-111.69v-189.31c0.056-2.16 1.024-50.232-29.062-80.878-15.23-15.528-35.45-23.738-58.462-23.738l-112.358-0.002zM395.19 202.762h37.218c41.648 0 80.226-11.878 121.39-37.366 18.47-11.45 53.77-15.508 78.382-15.508h112.38c6.666 0 9.476 1.936 11.32 3.836 7.168 7.168 10.352 24.428 10.314 34.37v189.79c0 13.778-2.030 45.82-20.946 45.82h-0.39l-1.862-0.39c0.242 0.056-0.316 0.13-1.546 0.13h-83.894c-18.172 0-32.954 14.802-32.954 32.972v114.222c0 30.814-8.154 43.474-12.456 45.876l-3.872 0.204-3.184-1.36c-0.446-0.242-0.93-0.522-1.434-0.838-8.378-8.75-15.974-42.022-23.72-78.364-8.154-37.926-17.408-80.858-34.798-113.906-14.616-27.742-50.436-60.844-137.942-60.844-1.49 0-12.008 0.39-12.008 0.39l0.002-159.034z" />
<glyph unicode="&#xe035;" glyph-name="ee-icon-internettethering" d="M784.664 572.24h-65.778c-10.594 0-19.214-10.464-19.214-23.272 0-12.828 8.62-23.272 19.214-23.272h65.778c10.594 0 19.214 10.444 19.214 23.272 0 12.808-8.62 23.272-19.214 23.272zM841.188 840.118h-179.646c-29.268 0-53.080-26.866-53.080-59.894l-0.002-281.024c0-33.010 23.794-59.858 53.080-59.858h62.91c-2.7-38.466 24.204-84.898 65.778-173.392 6.778-14.41 13.386-28.448 19.362-41.63 6.888-15.136 2.924-21.076 1.62-23.012-12.046-18.096-66.412-26.792-98.472-27.332-10.24-0.168-15.974 1.34-18.636 2.252l-10.594 16.98c0.074 0.82 0.26 1.62 0.26 2.476l0.004 222.638h-66.43v-188.212l-376.18 0.002v226.62h341.644v66.038h-375.846c-17.482 0-31.67-14.168-31.67-31.67v-295.434c0-0.856 0.186-1.658 0.26-2.476l-44.292-70.916c-4.878-7.82-5.138-17.65-0.67-25.712s12.94-13.052 22.156-13.052h553.854c14 0 25.34 11.338 25.34 25.34 0 6.2-2.234 11.916-5.94 16.31l-6.088 9.718c0.39 0 0.67 0 1.062 0 27.778 0 99.346 3.928 125.356 42.934 8.34 12.512 15.434 33.754 1.712 63.972-6.050 13.33-12.734 27.518-19.586 42.096-24.428 52.076-69.52 133.38-61.588 155.462h74.324c29.286 0 53.080 26.828 53.080 59.858l-0.002 281.022c-0.018 33.010-23.794 59.896-53.080 59.896zM494.48 134.21v-9.904h-129.918v9.904h-166.13l18.618 29.808h424.942l18.636-29.808h-166.148zM828.9 513.908c0-4.468-1.62-7.094-2.476-8.062h-149.336c-0.856 0.968-2.476 3.63-2.476 8.062v251.998c0 4.468 1.62 7.112 2.494 8.080h149.336c0.856-0.968 2.476-3.612 2.476-8.080v-251.998z" />
<glyph unicode="&#xe036;" glyph-name="ee-icon-innovation" d="M476.606 84.276c-18.19 0-32.972 14.802-32.972 32.972 0 18.208 14.802 32.992 32.972 32.992h68.664c18.19 0 32.972-14.802 32.972-32.992s-14.802-32.972-32.972-32.972h-68.664zM442.014 188.462c-18.19 0-32.972 14.802-32.972 32.992s14.802 32.972 32.972 32.972h137.83c18.19 0 32.972-14.802 32.972-32.972 0-18.208-14.802-32.992-32.972-32.992h-137.83zM426.226 295.628l-6.162 2.606c-26.288 11.096-40.308 44.908-56.562 84.062-7.206 17.408-13.964 33.402-18.042 38.744-21.058 21.020-38.018 46.284-49.674 73.802-12.176 28.876-18.358 59.466-18.358 90.912 0 31.484 6.182 62.054 18.338 90.876 11.804 27.852 28.634 52.838 50.046 74.25 21.41 21.374 46.378 38.204 74.194 50.008 28.672 12.14 59.262 18.302 90.912 18.302 31.632 0 62.204-6.162 90.876-18.264 27.834-11.822 52.802-28.654 74.174-50.008 21.448-21.504 38.316-46.49 50.046-74.25 12.194-28.876 18.376-59.466 18.376-90.894 0-31.39-6.182-61.962-18.338-90.856-11.842-27.852-28.672-52.82-50.046-74.23-3.538-4.766-8.88-17.036-17.688-38.354-16.272-39.192-30.292-72.984-56.524-84.098l-6.144-2.606-169.424-0.002zM510.92 753.246c-22.416 0-44.962-4.542-65.164-13.108-19.996-8.49-37.926-20.554-53.322-35.934-15.342-15.342-27.424-33.27-35.914-53.266-8.714-20.628-13.126-42.562-13.126-65.182 0-22.602 4.412-44.534 13.144-65.2 8.49-19.996 20.554-37.906 35.914-53.23 11.73-11.71 19.772-30.31 31.968-59.672 4.822-11.636 12.902-31.11 19.252-42.412l2.048-3.63h130.476l2.030 3.63c6.274 11.19 14.28 30.516 19.046 42.058 12.306 29.696 20.386 48.314 32.134 60.044 15.378 15.398 27.48 33.308 35.934 53.286 8.714 20.648 13.126 42.562 13.126 65.146 0 22.602-4.412 44.534-13.144 65.2-8.434 19.902-20.536 37.832-35.952 53.286-15.398 15.36-33.308 27.424-53.266 35.914-20.258 8.544-42.768 13.070-65.184 13.070z" />
<glyph unicode="&#xe037;" glyph-name="ee-icon-informationcircle" d="M509.804 801.132c-197.8 0-358.716-160.916-358.716-358.698 0-197.8 160.916-358.736 358.716-358.736 197.78 0 358.716 160.936 358.716 358.736-0.020 197.798-160.936 358.698-358.716 358.698zM509.804 151.096c-160.638 0-291.318 130.7-291.318 291.338s130.682 291.318 291.318 291.318c160.62 0 291.3-130.682 291.3-291.318-0.020-160.658-130.682-291.338-291.3-291.338zM510.53 519.884c-27.406 0-49.598-22.192-49.598-49.598v-236.246c0-27.368 22.192-49.598 49.598-49.598 27.368 0 49.58 22.23 49.58 49.598v236.246c0 27.388-22.194 49.598-49.58 49.598zM509.934 677.45c-27.872 0-50.436-22.546-50.436-50.436 0-27.834 22.584-50.418 50.436-50.418s50.418 22.602 50.418 50.418c0.018 27.872-22.566 50.436-50.418 50.436z" />
<glyph unicode="&#xe038;" glyph-name="ee-icon-home" d="M554.97 83.978c-18.264 0-33.122 14.858-33.122 33.122 0 18.284 14.858 33.158 33.122 33.158h246.822v424.96l-291.076 229.656-294.28-233.174v-454.6c0-18.264-14.858-33.122-33.14-33.122s-33.14 14.858-33.14 33.122v470.648c0 10.202 4.598 19.68 12.604 26.010l327.4 259.352c5.828 4.618 13.144 7.15 20.554 7.15s14.708-2.532 20.536-7.15l324.198-255.832c8.024-6.33 12.624-15.826 12.624-26.010v-474.15c0-18.264-14.858-33.122-33.122-33.122h-279.98z" />
<glyph unicode="&#xe039;" glyph-name="ee-icon-gaming" d="M727.916 83.792c-49.506 0-91.192 23.7-111.522 63.394-1.284 2.514-3.892 7.242-7.298 13.256l-1.34 2.402-2.718-0.242c-3.872-0.354-7.764-0.522-11.674-0.522-10.5 0-20.926 1.248-30.962 3.706-17.724 4.282-34.928 12.958-49.766 25.042l-2.7 2.178-2.7-2.178c-14.782-12.008-32.004-20.666-49.822-25.078-9.998-2.438-20.368-3.668-30.85-3.668-3.91 0-7.802 0.186-11.674 0.522l-2.736 0.242-1.34-2.42c-3.408-6.088-6.050-10.91-7.372-13.48-20.35-39.546-62.036-63.172-111.468-63.172-9.458 0-19.12 0.856-28.69 2.514-82.442 13.89-113.59 71.010-107.856 121.466 2.494 22.622 34.294 205.954 34.612 207.742 5.958 33.81 27.238 67.286 56.954 89.534 2.16 3.11 3.166 4.916 4.244 6.666 21.97 35.43 68.888 40.718 94.896 40.718l5.214-0.074c28.97-0.95 54.178-9.924 64.494-15.080 9.552-4.748 17.762-11.078 24.428-18.786l1.042-1.21c0 0 6.404-0.894 7.782-1.024l121.074-0.018c2.142 0.204 4.524 0.54 7.28 0.95l1.546 0.242 1.042 1.172c6.702 7.708 15.080 14.132 24.836 19.066 4.654 2.234 29.956 13.572 63.618 14.69l5.362 0.074c25.804 0 72.556-5.344 95.102-41.146 0.968-1.582 1.918-3.24 2.792-4.896 31.298-23.98 52.056-56.618 58.126-90.876 0.316-1.788 32.154-185.456 34.592-207.482 5.716-50.586-25.396-107.836-107.744-121.726-9.852-1.662-19.552-2.498-28.804-2.498zM637.728 242.12c8.024-13.87 30.962-53.694 36.846-65.238 9.142-17.854 28.094-27.666 53.322-27.666 6.050 0 12.046 0.502 17.854 1.526 35.934 6.032 56.524 25.172 53.714 49.896-1.974 18.116-31.186 187.578-33.978 203.516-3.966 22.398-22.156 45.392-44.554 56.468-1.228 3.258-4.17 10.612-7.838 16.608-3.984 6.33-25.786 9.812-39.322 9.812l-3.11-0.056c-18.228-0.578-34.108-6.59-37.366-8.154-5.958-3.034-7.54-7.894-11.282-19.586-8.732-2.196-40.812-8.396-49.99-8.396h-124.164c-9.384 0-41.184 6.106-49.99 8.378-3.872 12.12-5.586 16.72-11.282 19.568-2.978 1.49-19.010 7.614-37.422 8.192l-3.072 0.038c-13.572 0-35.394-3.5-39.322-9.794-3.686-6.014-6.61-13.35-7.838-16.626-22.398-11.060-40.588-34.034-44.554-56.468-2.792-15.9-31.986-185.288-33.996-203.534-2.792-24.706 17.818-43.828 53.75-49.878 5.772-1.024 11.766-1.526 17.818-1.526 25.246 0 44.2 9.812 53.36 27.666 5.902 11.524 28.82 51.348 36.846 65.238 10.202-8.694 27.742-14.634 44.404-14.634 5.51 0 10.724 0.596 15.472 1.768 20.294 5.026 36.194 21.82 41.24 33.402h53.342c5.046-11.618 20.964-28.43 41.24-33.402 4.73-1.154 9.924-1.768 15.472-1.768 16.66 0.016 34.198 5.974 44.4 14.65zM351.418 308.346c-22.454 0-40.718 18.284-40.718 40.756 0 22.454 18.264 40.736 40.718 40.736 22.472 0 40.736-18.284 40.736-40.736 0.020-22.474-18.264-40.756-40.736-40.756zM674.462 308.346c-22.434 0-40.718 18.284-40.718 40.756 0 22.454 18.264 40.736 40.718 40.736s40.736-18.284 40.736-40.736c-0.018-22.474-18.282-40.756-40.736-40.756zM509.952 289.54c-9.29 0-16.85 7.578-16.85 16.906v25.748h-25.842c-9.29 0-16.85 7.578-16.85 16.868s7.558 16.85 16.85 16.85h25.842v25.842c0 9.31 7.558 16.868 16.85 16.868 9.31 0 16.868-7.558 16.868-16.868v-25.842h25.804c9.29 0 16.85-7.558 16.85-16.85s-7.558-16.868-16.85-16.868h-25.804v-25.748c0-9.328-7.578-16.906-16.868-16.906z" />
<glyph unicode="&#xe03a;" glyph-name="ee-icon-forwardfast" d="M495.634 83.418c13.144 0 25.544 5.158 34.946 14.504l309.862 309.75c9.346 9.346 14.466 21.764 14.466 34.964 0 13.182-5.12 25.6-14.43 34.964l-309.86 309.81c-9.328 9.328-21.764 14.466-34.946 14.466-13.274 0-25.712-5.158-34.984-14.54-9.31-9.31-14.466-21.728-14.466-34.91s5.158-25.6 14.466-34.946l274.842-274.842-274.804-274.768c-9.346-9.364-14.504-21.764-14.504-34.964 0-13.182 5.158-25.582 14.466-34.946s21.746-14.542 34.946-14.542zM213.998 83.418c13.088 0 25.488 5.158 34.91 14.504l309.9 309.75c9.328 9.346 14.466 21.764 14.466 34.964 0 13.182-5.12 25.6-14.466 34.964l-309.864 309.81c-9.346 9.328-21.746 14.466-34.91 14.466-13.274 0-25.712-5.158-34.984-14.54-9.31-9.31-14.466-21.728-14.466-34.91s5.158-25.6 14.466-34.946l274.804-274.842-274.766-274.768c-9.346-9.364-14.504-21.764-14.504-34.964 0-13.182 5.158-25.582 14.466-34.946s21.748-14.542 34.948-14.542z" />
<glyph unicode="&#xe03b;" glyph-name="ee-icon-flightmode" d="M644.916 26.502c-1.582 0-3.166 0.186-4.71 0.522-7.652 1.62-13.908 7.13-16.57 14.484l-99.812 276.852-42.598-31.558c-2.308-3.11-4.19-18.45-5.082-25.842-0.708-5.808-1.396-11.17-2.29-15.49-2.384-11.19-4.19-22.1-5.958-32.582-7.634-45.67-14.858-88.772-57.438-124.202-5.958-4.952-14.15-6.554-21.542-4.096-7.41 2.438-13.052 8.472-14.914 16.030l-14.336 57.958c-11.934-9.272-25.34-17.092-39.768-17.092v0c-10.78 0-20.61 4.356-28.038 12.436-13.386 10.52-17.502 22.472-18.544 30.868-2.122 16.83 5.884 31.874 15.546 44.944l-58.256 13.014c-7.634 1.712-13.814 7.224-16.402 14.616-2.588 7.354-1.192 15.528 3.668 21.598 35.636 44.61 84.172 53.1 131.090 61.272 11.674 2.030 23.626 4.114 35.672 6.796 33.456 7.504 42.598 19.978 61.7 49.32l-279.738 94.918c-7.428 2.514-13.014 8.676-14.802 16.29-1.788 7.634 0.502 15.62 6.032 21.15 2.83 2.812 5.436 5.846 8.006 8.862 10.78 12.456 25.526 29.528 51.088 29.528l344.958-0.038c36.938 0 38.372 0 71.252 34.35l71.94 75.162c14.914 15.584 58.368 18.786 69.148 18.786 10.892 0 24.428-1.266 33.104-11.17 19.624-22.36 4.208-87.822-11.096-103.052l-79.5-79.090c-26.792-26.642-26.53-33.29-25.078-70.246 0.316-6.796 0.596-14.354 0.782-22.882l4.58-239.616c0.168-9.216 0.54-17.446 0.894-24.93 1.936-41.78 3.22-69.39-36.716-110.908-4.282-4.448-10.166-6.962-16.272-6.962z" />
<glyph unicode="&#xe03c;" glyph-name="ee-icon-findstore" d="M856.064 617.276l-324.198 255.832c-5.808 4.618-13.108 7.15-20.536 7.15s-14.726-2.532-20.554-7.15l-327.402-259.35c-8.024-6.33-12.604-15.826-12.604-26.010v-470.63c0-18.264 14.876-33.122 33.14-33.122s33.14 14.858 33.14 33.122v454.582l294.28 233.174 291.076-229.656v-424.942h-246.82c-18.264 0-33.122-14.876-33.122-33.158 0-18.264 14.858-33.122 33.122-33.122h279.98c18.264 0 33.122 14.858 33.122 33.122v474.148c0 10.204-4.6 19.68-12.624 26.010zM559.328 265.058c89.74 6.814 157.306 85.402 150.546 175.178-3.276 43.566-23.272 83.186-56.282 111.578-30.032 25.88-66.728 39.546-106.068 39.546-4.226 0-8.396-0.168-12.66-0.484-43.53-3.24-83.15-23.236-111.616-56.302-28.468-33.084-42.338-75.254-39.042-118.802 2.086-27.89 11.376-54.906 26.828-78.122l6.982-9.532-96.35-111.486c-5.754-6.646-8.546-15.174-7.894-23.962s4.674-16.774 11.358-22.528c5.996-5.158 13.628-8.006 21.504-8.006 9.626 0 18.768 4.19 25.042 11.45l96.33 111.336 10.016-4.952c21.784-10.222 45.018-15.398 69.036-15.398 4.058 0.020 8.154 0.188 12.27 0.486zM450.002 420.742c-1.974 25.972 6.274 51.126 23.254 70.786 16.942 19.716 40.57 31.632 66.466 33.55 2.476 0.204 5.026 0.28 7.484 0.28 23.198 0 45.708-8.36 63.34-23.552 19.418-16.738 31.242-39.918 33.456-66.448l0.074-0.074c4.040-53.546-36.212-100.408-89.702-104.466-2.402-0.168-4.766-0.26-7.13-0.26-50.752-0.002-93.444 39.618-97.242 90.184z" />
<glyph unicode="&#xe03d;" glyph-name="ee-icon-filmstore" d="M836.794 591.9l-617.994-0.168-3.65 12.028c-1.824 5.976-4.282 10.594-7.262 13.592-5.79 5.772-14.374 9.086-23.552 9.086-9.068 0-17.576-3.296-23.31-9.048-5.902-5.902-9.552-14.708-9.552-22.956 0-3.462 0.838-7.372 2.532-11.654l2.402-6.144-2.364-6.162c-1.694-4.394-2.476-8.098-2.476-11.674v-442.312c0-18.152 14.764-32.898 32.954-32.898l652.288 0.168c18.19 0 32.954 14.746 32.954 32.898l0.002 442.308c-0.018 18.154-14.782 32.936-32.972 32.936zM803.896 149.626l-586.436-0.168v376.422l586.436 0.168v-376.422zM461.862 276.248c2.514 0 6.758 0.744 12.81 4.244l105.434 60.844c6.982 4.022 11.302 8.974 11.302 12.94 0 3.984-4.32 8.936-11.302 12.976l-105.416 60.956c-6.032 3.482-10.296 4.208-12.81 4.208-8.472 0-9.718-10.78-9.718-17.204v-121.818c0.018-6.386 1.266-17.146 9.7-17.146zM337.38 605.882c4.096 0 8.658 0.726 12.734 1.918 10.314 3.5 18.618 10.798 23.348 20.462 4.654 9.496 5.324 20.2 1.88 30.236-5.66 16.682-20.424 27.462-37.608 27.462-4.394 0-8.806-0.744-12.996-2.16-21.020-7.298-32.154-29.734-25.544-50.27 5.958-16.29 21.654-27.648 38.186-27.648zM489.826 657.082c4.096 0 8.658 0.726 12.734 1.918 10.314 3.5 18.618 10.798 23.348 20.462 4.654 9.496 5.324 20.2 1.88 30.236-5.66 16.682-20.424 27.462-37.608 27.462-4.394 0-8.806-0.744-12.996-2.16-21.020-7.298-32.154-29.734-25.544-50.27 5.94-16.29 21.634-27.648 38.186-27.648zM642.252 709.456c4.096 0 8.658 0.726 12.734 1.918 10.314 3.5 18.618 10.798 23.348 20.462 4.654 9.496 5.324 20.2 1.88 30.236-5.66 16.682-20.424 27.462-37.608 27.462-4.394 0-8.826-0.744-12.996-2.16-21.020-7.298-32.154-29.734-25.526-50.27 5.94-16.292 21.618-27.648 38.168-27.648zM795.852 761.81c4.096 0 8.658 0.726 12.734 1.918 10.314 3.5 18.618 10.798 23.348 20.462 4.654 9.496 5.324 20.2 1.88 30.236-5.66 16.682-20.424 27.462-37.608 27.462-4.394 0-8.826-0.744-12.996-2.16-21.020-7.298-32.154-29.734-25.526-50.27 5.94-16.292 21.618-27.648 38.168-27.648zM183.78 547.7c4.096 0 8.658 0.726 12.734 1.918 10.314 3.5 18.618 10.798 23.348 20.462 4.654 9.496 5.324 20.2 1.88 30.236-5.66 16.682-20.424 27.462-37.608 27.462-4.394 0-8.806-0.744-12.996-2.16-21.020-7.298-32.154-29.734-25.544-50.27 5.958-16.29 21.654-27.648 38.186-27.648z" />
<glyph unicode="&#xe03e;" glyph-name="ee-icon-filmee" d="M536.986 482.052l-24.538 49.804c-0.502 1.006-1.638 1.694-2.792 1.694s-2.252-0.708-2.756-1.676l-24.538-49.822-54.83-7.95c-1.172-0.168-2.122-0.95-2.476-2.048-0.39-1.172-0.13-2.328 0.782-3.202l39.62-38.782-9.328-54.552c-0.204-1.172 0.298-2.402 1.080-2.978 0.41-0.298 0.876-0.484 1.806-0.484 0.41 0 0.93 0.038 1.582 0.13l49.058 25.916 48.574-25.638c0.986-0.446 1.676-0.578 1.954-0.578 0.652 0 1.266 0.204 1.788 0.54 0.986 0.708 1.452 1.936 1.266 3.072l-9.384 54.588 39.75 38.838c0.838 0.8 1.098 2.010 0.726 3.146-0.336 1.062-1.304 1.88-2.438 2.030l-54.906 7.952zM181.136 797.762c-18.152-0.094-32.898-14.914-32.898-33.028v-648.23c0-18.208 14.82-32.992 33.048-32.992s33.048 14.802 33.048 32.992l-0.002 648.228c0.020 18.116-14.746 32.936-33.196 33.030zM837.632 797.762c-18.246 0-33.048-14.82-33.048-33.048v-648.21c0-18.208 14.802-32.992 33.048-32.992 18.19 0 33.010 14.802 33.010 32.992v648.21c0.018 18.228-14.82 33.048-33.010 33.048zM322.634 643.9c4.096 0 8.658 0.726 12.734 1.918 10.314 3.5 18.618 10.798 23.348 20.462 4.654 9.496 5.324 20.2 1.88 30.236-5.66 16.682-20.424 27.462-37.608 27.462-4.394 0-8.826-0.744-12.996-2.16-21.020-7.298-32.154-29.734-25.526-50.27 5.94-16.29 21.616-27.648 38.168-27.648zM322.634 482.536c4.096 0 8.658 0.726 12.734 1.918 10.314 3.5 18.618 10.798 23.348 20.462 4.654 9.496 5.324 20.2 1.88 30.236-5.66 16.682-20.424 27.462-37.608 27.462-4.394 0-8.826-0.744-12.996-2.16-21.020-7.298-32.154-29.734-25.526-50.27 5.94-16.29 21.616-27.648 38.168-27.648zM322.634 319.628c4.096 0 8.658 0.726 12.734 1.936 10.314 3.5 18.618 10.78 23.348 20.462 4.654 9.496 5.324 20.2 1.88 30.236-5.66 16.664-20.424 27.462-37.608 27.462-4.394 0-8.826-0.744-12.996-2.16-21.020-7.298-32.154-29.734-25.526-50.27 5.94-16.31 21.616-27.666 38.168-27.666zM322.634 158.264c4.096 0 8.658 0.726 12.734 1.936 10.314 3.5 18.618 10.78 23.348 20.462 4.654 9.496 5.324 20.2 1.88 30.236-5.66 16.664-20.424 27.462-37.608 27.462-4.394 0-8.826-0.744-12.996-2.16-21.020-7.298-32.154-29.734-25.526-50.27 5.94-16.31 21.616-27.666 38.168-27.666zM695.78 643.9c4.078 0 8.658 0.726 12.734 1.918 10.296 3.5 18.618 10.798 23.348 20.462 4.654 9.496 5.306 20.2 1.862 30.236-5.642 16.682-20.406 27.462-37.608 27.462-4.394 0-8.806-0.744-12.976-2.16-21.020-7.298-32.154-29.734-25.526-50.27 5.92-16.29 21.614-27.648 38.166-27.648zM695.78 482.536c4.078 0 8.658 0.726 12.734 1.918 10.296 3.5 18.618 10.798 23.348 20.462 4.654 9.496 5.306 20.2 1.862 30.236-5.642 16.682-20.406 27.462-37.608 27.462-4.394 0-8.806-0.744-12.976-2.16-21.020-7.298-32.154-29.734-25.526-50.27 5.92-16.29 21.614-27.648 38.166-27.648zM695.78 319.628c4.078 0 8.658 0.726 12.734 1.936 10.296 3.5 18.618 10.78 23.348 20.462 4.654 9.496 5.306 20.2 1.862 30.236-5.642 16.664-20.406 27.462-37.608 27.462-4.394 0-8.806-0.744-12.976-2.16-21.020-7.298-32.154-29.734-25.526-50.27 5.92-16.31 21.614-27.666 38.166-27.666zM695.78 158.264c4.078 0 8.658 0.726 12.734 1.936 10.296 3.5 18.618 10.78 23.348 20.462 4.654 9.496 5.306 20.2 1.862 30.236-5.642 16.664-20.406 27.462-37.608 27.462-4.394 0-8.806-0.744-12.976-2.16-21.020-7.298-32.154-29.734-25.526-50.27 5.92-16.31 21.614-27.666 38.166-27.666z" />
<glyph unicode="&#xe03f;" glyph-name="ee-icon-features" d="M701.776 797.482h-37.18l-0.002 33.978c0 18.228-14.82 33.028-33.010 33.028-18.228 0-33.048-14.802-33.048-33.028v-33.978h-55.762l0.002 33.978c0 18.228-14.82 33.028-33.028 33.028s-33.010-14.802-33.010-33.028v-33.978h-54.328v33.978c0 18.228-14.802 33.028-33.010 33.028s-33.028-14.802-33.028-33.028v-33.978h-38.67c-56.134 0-101.804-45.67-101.804-101.804v-510.25c0-56.152 45.67-101.822 101.804-101.822h384.112c56.172 0 101.842 45.67 101.842 101.822l-0.002 510.25c-0.038 56.134-45.708 101.804-101.878 101.804zM737.56 185.41c0-19.716-16.048-35.766-35.784-35.766h-384.112c-19.716 0-35.746 16.048-35.746 35.766l-0.002 510.268c0 19.736 16.048 35.766 35.746 35.766h38.67v-33.978c0-18.208 14.82-33.028 33.028-33.028s33.010 14.82 33.010 33.028v33.978h54.328v-33.978c0-18.208 14.82-33.028 33.010-33.028 18.228 0 33.028 14.82 33.028 33.028v33.978h55.762v-33.978c0-18.208 14.82-33.028 33.048-33.028 18.208 0 33.010 14.82 33.010 33.028v33.978h37.18c19.736 0 35.784-16.048 35.784-35.766l0.002-510.268zM626.818 295.164h-229.618c-18.264 0-33.084-14.82-33.084-33.084 0-18.284 14.82-33.104 33.084-33.104h229.618c18.264 0 33.084 14.82 33.084 33.104 0 18.264-14.82 33.084-33.084 33.084zM626.818 439.92h-229.618c-18.264 0-33.084-14.82-33.084-33.084 0-18.284 14.82-33.104 33.084-33.104h229.618c18.264 0 33.084 14.82 33.084 33.104 0 18.282-14.82 33.084-33.084 33.084zM397.182 519.326h229.618c18.264 0 33.084 14.82 33.084 33.104 0 18.264-14.82 33.084-33.084 33.084h-229.618c-18.264 0-33.084-14.82-33.084-33.084 0-18.302 14.82-33.104 33.084-33.104z" />
<glyph unicode="&#xe040;" glyph-name="ee-icon-facebook" d="M783.882 795.36v0 0c-2.886 0.93-5.864 1.768-8.88 2.476 0 0-0.018 0-0.038 0-1.49 0.354-2.96 0.67-4.468 0.968-0.074 0-0.13 0.018-0.204 0.038-1.434 0.28-2.886 0.54-4.356 0.782-0.038 0-0.112 0-0.186 0.018-1.434 0.242-2.886 0.428-4.32 0.596-0.242 0.038-0.446 0.056-0.67 0.074-1.36 0.168-2.736 0.298-4.114 0.41-0.112 0-0.204 0-0.28 0.018-1.414 0.112-2.83 0.186-4.264 0.26-0.316 0-0.652 0-0.986 0.018-1.414 0.038-2.848 0.074-4.282 0.074l-474.878 0.002c-1.452 0-2.904-0.038-4.32-0.074-0.316-0.018-0.652-0.018-0.968-0.018-1.414-0.074-2.848-0.148-4.244-0.26-0.112-0.018-0.204-0.018-0.28-0.018-1.378-0.112-2.756-0.242-4.134-0.41-0.224-0.018-0.446-0.038-0.67-0.074-1.452-0.168-2.886-0.372-4.338-0.596-0.074 0-0.13 0-0.204-0.018-1.452-0.242-2.904-0.502-4.338-0.782-0.056-0.018-0.13-0.038-0.186-0.038-1.526-0.298-2.998-0.614-4.468-0.968-0.018 0-0.038 0-0.038 0-53.378-12.716-93.054-60.676-93.054-117.928v-474.894c0-66.97 54.29-121.242 121.242-121.242h232.522v292.176h-76.688v98.64h76.688c0 0 0 64.456 0 78.904 0 14.43-2.904 110.964 120.628 110.964 16.57 0 58.462 0 91.508 0 0-41.928 0-87.282 0-100.426-24.744 0-55.762 0-68.46 0-12.678 0-25.506-13.274-25.506-23.142 0-9.83 0-65.946 0-65.946s79.238 0 89.534 0c-0.204-2.644-0.39-5.25-0.614-7.876 0-0.148 0-0.316-0.018-0.446-0.204-2.532-0.39-5.064-0.614-7.558 0-0.112 0-0.186-0.018-0.316-0.242-2.57-0.466-5.12-0.688-7.652-0.018-0.074-0.018-0.148-0.038-0.224-0.224-2.532-0.466-5.046-0.688-7.504-3.706-37.422-8.286-67.436-8.286-67.436h-78.996v-292.176h124.612c66.95 0 121.222 54.272 121.222 121.242v13.722l-0.002 270.128v191.060c-0.018 54.030-35.338 99.794-84.172 115.452z" />
<glyph unicode="&#xe041;" glyph-name="ee-icon-explore" d="M849.53 346.028c-7.392 7.392-152.018 207.592-340.47 207.592-187.82 0-333.080-200.22-340.47-207.612-18.172-18.172-12.064-42.896 0-54.942 7.392-7.392 152.614-207.536 340.49-207.536 188.51 0 333.080 200.126 340.47 207.518 10.778 10.8 18.784 36.194-0.020 54.98zM780.492 310.69c-22.304-26.828-140.176-160.694-271.434-160.694-122.694 0-230.512 112.472-271.174 160.824l-6.516 7.746 6.516 7.746c40.68 48.352 148.536 160.806 271.174 160.806 122.712 0 230.68-112.584 271.378-160.992l6.48-7.69-6.424-7.746zM509.058 391.512c-43.306 0-78.532-35.226-78.532-78.512 0-43.306 35.226-78.532 78.532-78.532s78.55 35.226 78.55 78.532c0 43.286-35.244 78.512-78.55 78.512z" />
<glyph unicode="&#xe042;" glyph-name="ee-icon-email" d="M184.394 83.81c-18.45 0-33.456 15.024-33.456 33.476v437.974c0.018 2.104 0.26 4.114 0.614 6.162l1.136 4.468 1.49 3.5c0.54 1.136 1.154 2.252 1.806 3.314l1.118 1.768c0.968 1.36 1.992 2.626 3.128 3.798 1.992 2.104 3.5 3.296 5.082 4.412 2.736 1.676 3.928 2.328 5.138 2.904l2.048 0.838c1.248 0.484 2.532 0.856 3.854 1.172l1.918 0.484c2.010 0.372 4.040 0.614 6.106 0.614l651.208 0.004c2.104 0 4.114-0.26 6.126-0.614l1.918-0.484c1.34-0.336 2.626-0.708 3.854-1.192l2.030-0.838c1.228-0.558 2.458-1.228 3.612-1.974 3.072-1.992 4.654-3.22 6.032-4.654 1.658-1.676 2.756-3.11 3.836-4.598 1.638-2.662 2.29-3.892 2.886-5.158l0.82-1.992 1.024-2.904 0.484-2.104c0.558-2.774 0.82-4.84 0.82-6.908v-438.030c0-18.45-15.024-33.476-33.456-33.476h-651.176zM265.142 150.686h489.696l-172.014 172.088-52.652-39.712c-5.864-4.412-12.828-6.778-20.144-6.778s-14.28 2.346-20.144 6.74l-52.69 39.712-172.052-172.050zM636.742 363.454l165.422-165.478v290.184l-165.422-124.706zM217.852 197.976l165.404 165.46-165.404 124.686v-290.146zM510.026 351.65l225.634 170.152h-451.342l225.708-170.152z" />
<glyph unicode="&#xe043;" glyph-name="ee-icon-educate" d="M505.466 84.554c-131.090 0-237.736 106.682-237.736 237.81 0 56.934 20.442 111.988 57.568 155.070 6.312 7.336 15.49 11.524 25.154 11.524 3.314 0 6.628-0.484 9.85-1.47l142.652-44.032 141.666 49.356c3.5 1.21 7.186 1.844 10.91 1.844 9.254 0 18.152-3.872 24.408-10.63 40.812-44.106 63.302-101.524 63.302-161.662-0.002-131.108-106.666-237.81-237.774-237.81zM359.442 411.992c-16.552-26.96-25.302-57.958-25.302-89.61 0-94.506 76.856-171.38 171.344-171.38s171.324 76.874 171.324 171.38c0 33.996-9.904 66.858-28.634 95.008l-3.426 5.138-130.252-45.336c-3.518-1.228-7.206-1.88-10.928-1.88-3.314 0-6.61 0.484-9.812 1.47l-131.072 40.476-3.242-5.266zM780.214 379.69c-7.056 0-12.81 5.754-12.81 12.79v5.438c0 2.272 0.634 4.598 1.806 6.572l9.756 16.328c0.67 1.136 1.676 2.196 3.202 3.37l7.020 5.492-6.238 6.386c-6.74 6.888-10.464 15.918-10.464 25.452 0 8.322 2.904 16.254 8.416 22.956l1.806 2.196v97.318l-275.418-82.758c-1.192-0.372-2.402-0.54-3.65-0.54-1.284 0-2.458 0.168-3.612 0.522l-320.978 96.442c-5.456 1.638-9.104 6.572-9.104 12.25s3.65 10.612 9.104 12.232l320.922 96.48c1.21 0.372 2.438 0.54 3.668 0.54 1.228 0 2.438-0.186 3.63-0.54l321.052-96.48c5.456-1.638 9.122-6.554 9.122-12.25 0-1.546-0.428-3.22-1.378-5.232l-0.726-1.582v-116.42l1.806-2.196c5.51-6.702 8.416-14.652 8.416-22.956 0-9.532-3.706-18.58-10.464-25.452l-6.238-6.386 7.020-5.492c1.452-1.136 2.494-2.216 3.146-3.332l9.738-16.422c1.154-1.974 1.806-4.244 1.806-6.516v-5.436c0-7.038-5.754-12.79-12.81-12.79l-57.546-0.002z" />
<glyph unicode="&#xe044;" glyph-name="ee-icon-download" d="M835.64 425.584c-18.19 0-32.972-14.802-32.972-32.992v-243.136l-585.952-1.098v244.216c0 18.208-14.802 32.992-32.992 32.992-18.208 0-33.010-14.802-33.010-32.992v-276.070c0-18.228 14.802-33.010 33.010-33.010h651.934c18.228 0 33.010 14.802 33.010 33.010v276.070c-0.018 18.208-14.82 33.010-33.028 33.010zM492.432 256.232c1.508-1.49 3.184-2.868 5.864-4.542l2.792-1.49c0.578-0.336 1.154-0.688 1.788-0.95l1.192-0.596 2.308-0.466 2.812-0.894c2.122-0.428 4.282-0.652 6.46-0.652s4.3 0.224 7.856 1.080l2.978 0.856c0.578 0.242 1.936 0.67 1.936 0.67 0.688 0.28 1.266 0.652 3.24 1.768l2.216 1.098c1.712 1.172 3.314 2.514 5.12 4.208l129.602 129.638c6.218 6.238 9.644 14.522 9.644 23.348s-3.426 17.11-9.682 23.348c-6.218 6.218-14.504 9.662-23.31 9.662-8.844 0-17.128-3.444-23.384-9.662l-73.486-73.094 0.298 29.118 0.002 212.436c0 18.208-14.802 33.010-33.010 33.010s-32.992-14.802-32.992-33.010v-240.23l-73.262 71.718c-6.238 6.238-14.522 9.682-23.348 9.682s-17.092-3.444-23.328-9.662c-6.238-6.238-9.682-14.522-9.682-23.348s3.444-17.11 9.682-23.348l129.694-129.696z" />
</font>
</defs>
</svg>
